<?xml version="1.0" standalone="no"?>
<!DOCTYPE svg PUBLIC "-//W3C//DTD SVG 1.1//EN" "http://www.w3.org/Graphics/SVG/1.1/DTD/svg11.dtd" >
<!--
2013-9-30: Created.
-->
<svg>
<metadata>
Created by iconfont
</metadata>
<defs>

<font id="iconfont" horiz-adv-x="1024" >
  <font-face
    font-family="iconfont"
    font-weight="500"
    font-stretch="normal"
    units-per-em="1024"
    ascent="896"
    descent="-128"
  />
    <missing-glyph />
    
    <glyph glyph-name="sangang" unicode="&#58897;" d="M785.497513 559.538081c0-12.109806-9.8176-21.927405-21.928429-21.927405L222.70571 537.610676c-12.109806 0-21.927405 9.8176-21.927405 21.927405l0 0c0 12.109806 9.8176 21.927405 21.927405 21.927405l540.863375 0C775.680936 581.46651 785.497513 571.64891 785.497513 559.538081L785.497513 559.538081zM785.497513 296.414335c0-12.109806-9.8176-21.927405-21.928429-21.927405L222.70571 274.48693c-12.109806 0-21.927405 9.8176-21.927405 21.927405l0 0c0 12.109806 9.8176 21.927405 21.927405 21.927405l540.863375 0C775.680936 318.342764 785.497513 308.525164 785.497513 296.414335L785.497513 296.414335zM785.497513 33.291612c0-12.110829-9.8176-21.928429-21.928429-21.928429L222.70571 11.363184c-12.109806 0-21.927405 9.8176-21.927405 21.928429l0 0c0 12.109806 9.8176 21.927405 21.927405 21.927405l540.863375 0C775.680936 55.219018 785.497513 45.401418 785.497513 33.291612L785.497513 33.291612z"  horiz-adv-x="1024" />

    
    <glyph glyph-name="iconfont15" unicode="&#58893;" d="M207.166293-19.007521 207.166293-19.007521c6.864338-6.864338 17.992793-6.864338 24.857131 0l267.546475 267.546475c6.864338 6.864338 17.992793 6.864338 24.857131 0l267.548522-267.547499c6.864338-6.864338 17.992793-6.864338 24.857131 0l0.002047 0.002047c6.864338 6.864338 6.864338 17.992793 0 24.857131l-292.4077 292.403606c-6.864338 6.864338-17.992793 6.864338-24.857131 0L207.166293 5.84961C200.301955-1.013705 200.301955-12.143183 207.166293-19.007521zM207.166293 301.747807 207.166293 301.747807c6.864338-6.864338 17.992793-6.864338 24.857131 0l267.546475 267.546475c6.864338 6.864338 17.992793 6.864338 24.857131 0l267.548522-267.547499c6.864338-6.864338 17.992793-6.864338 24.857131 0l0.002047 0.002047c6.864338 6.864338 6.864338 17.992793 0 24.857131l-292.4077 292.403606c-6.864338 6.864338-17.992793 6.864338-24.857131 0L207.166293 326.603915C200.301955 319.7406 200.301955 308.611122 207.166293 301.747807zM511.998977 523.585241"  horiz-adv-x="1024" />

    
    <glyph glyph-name="jinlingyingcaiwangtubiao18" unicode="&#59056;" d="M838.758 613.683c-87.014 87.014-202.726 134.938-325.811 134.938s-238.822-47.949-325.862-134.963c-87.014-87.014-134.938-202.726-134.938-325.811 0-123.085 47.923-238.797 134.938-325.837 87.014-87.014 202.726-134.938 325.811-134.938s238.797 47.923 325.811 134.938c179.686 179.686 179.686 472.038 0.051 651.674zM574.464 162.611l-113.92-113.178c-24.704-24.55-57.472-38.067-92.288-38.067-0.154 0-0.307 0-0.461 0-34.995 0.102-67.84 13.85-92.518 38.682l-6.195 6.246c-50.918 51.277-50.662 134.4 0.589 185.318l69.581 69.094 27.059-27.238-69.581-69.094c-36.198-35.994-36.403-94.746-0.435-130.995l6.195-6.221c17.459-17.587 40.678-27.29 65.434-27.366 0.102 0 0.205 0 0.333 0 24.602 0 47.77 9.549 65.254 26.906l113.92 113.178c17.562 17.434 27.238 40.653 27.315 65.382 0.102 24.73-9.446 48.026-26.906 65.587l-6.221 6.272 27.238 27.085 6.221-6.272c24.653-24.832 38.17-57.779 38.042-92.774-0.077-35.046-13.824-67.891-38.656-92.544zM755.968 334.131l-58.47-58.086-27.059 27.238 58.47 58.086c36.198 35.994 36.403 94.746 0.435 130.97l-6.221 6.246c-35.968 36.25-94.694 36.429-130.97 0.435l-113.92-113.178c-36.224-35.994-36.429-94.746-0.435-130.97l6.221-6.272-27.238-27.085-6.221 6.272c-50.893 51.251-50.637 134.374 0.614 185.293l113.92 113.178c51.226 50.918 134.349 50.637 185.267-0.614l6.221-6.272c50.918-51.2 50.637-134.323-0.614-185.242z"  horiz-adv-x="1024" />

    
    <glyph glyph-name="mima-copy" unicode="&#58880;" d="M760.384 454.624v103.616c0 0-0.032 241.728-241.728 241.728s-241.728-241.728-241.728-241.728v-103.616h-103.616v-483.488h690.688v483.488h-103.616zM553.184 187.936v-113.184h-69.056v113.184c-20.544 11.968-34.528 34.016-34.528 59.488 0 38.176 30.944 69.088 69.056 69.088 38.112 0 69.056-30.912 69.056-69.088 0.032-25.472-13.952-47.52-34.528-59.488M691.328 454.656h-345.344v103.136c0.384 28.928 10.56 173.12 172.672 173.12s172.288-144.192 172.672-172.672v-103.584z"  horiz-adv-x="1024" />

    
    <glyph glyph-name="xiangqing" unicode="&#58930;" d="M513.717619 831.532733c-247.535723 0-448.205045-200.672392-448.205045-448.211185 0-247.536746 200.669322-448.205045 448.205045-448.205045 247.540839 0 448.211185 200.668299 448.211185 448.205045C961.928804 630.860341 761.258459 831.532733 513.717619 831.532733L513.717619 831.532733zM507.696486 61.119265c-22.99369-12.846586-41.802058-19.270902-56.388265-19.270902-12.787234 0-22.915919 3.931542-30.395264 11.776208-7.481392 7.848759-11.218506 18.738783-11.218506 32.654724 0 44.601824 27.373441 153.62589 82.125439 327.059917 2.559289 8.209986 3.837398 15.527648 3.837398 21.945825 0 7.131421-3.28686 10.704806-9.857509 10.704806-7.305383 0-15.600303-2.861164-24.904203-8.563026-9.31311-5.713119-30.039153-23.914666-62.147432-54.602595l-24.093744 18.201547c36.455283 39.250956 69.725014 67.184145 99.79589 83.773985 30.086226 16.590863 55.685253 24.8909 76.832899 24.8909 11.673877 0 20.60427-2.499937 26.800389-7.489578 6.191003-5.002944 9.299807-11.776208 9.299807-20.343327 0-10.353812-11.830443-54.248531-35.499515-131.687228-38.579667-126.679168-57.871035-203.057719-57.871035-229.101885 0-4.999874 1.269923-9.193383 3.832282-12.577456 2.552126-3.394307 5.2864-5.078669 8.214079-5.078669 11.67797 0 41.6107 22.116717 89.788979 66.372663l21.35333-20.340257C567.184345 103.413534 530.692223 73.966874 507.696486 61.119265L507.696486 61.119265zM635.065362 603.412199c-11.136641-11.962449-23.635303-17.928325-37.505195-17.928325-10.94733 0-20.076244 3.747347-27.376511 11.242042-7.300266 7.486508-10.94733 17.300015-10.94733 29.440519 0 16.053628 5.28333 29.707602 15.876596 40.950667 10.579963 11.235902 23.177885 16.854876 37.784558 16.854876 11.304464 0 20.61655-3.66139 27.916816-10.967796 7.300266-7.322779 10.946306-16.688077 10.946306-28.102035C651.764696 629.196445 646.19791 615.372601 635.065362 603.412199L635.065362 603.412199z"  horiz-adv-x="1024" />

    
    <glyph glyph-name="xiangqing1" unicode="&#58926;" d="M506.231111 830.990381c-246.822478 0-446.911586-200.090131-446.911586-446.912609 0-246.823502 200.090131-446.912609 446.911586-446.912609 246.823502 0 446.912609 200.089108 446.912609 446.912609C953.144744 630.901273 753.054613 830.990381 506.231111 830.990381zM810.142819 191.270511 598.136288 114.181785l-192.736653 77.088726-212.009601-77.088726L193.390034 576.729489l212.009601 77.088726 192.736653-77.088726 212.007555 77.088726L810.143842 191.270511zM771.597945 598.785831 617.40719 542.737304 617.40719 162.211684 771.597945 218.264305ZM424.670537 225.076454 578.862315 163.416116 578.862315 542.924569 424.670537 604.582861ZM231.939001 169.214169 386.126686 225.263719 386.126686 605.785246 231.939001 549.737742Z"  horiz-adv-x="1024" />

    
    <glyph glyph-name="xiangqingjingyanliebiaoshuxing" unicode="&#59302;" d="M480 832C214.848 832 0 617.152 0 352S214.848-128 480-128 960 86.848 960 352 745.152 832 480 832zM288 128C270.336 128 256 142.336 256 160S270.336 192 288 192 320 177.664 320 160 305.664 128 288 128zM288 320C270.336 320 256 334.336 256 352S270.336 384 288 384 320 369.664 320 352 305.664 320 288 320zM288 512C270.336 512 256 526.336 256 544S270.336 576 288 576 320 561.664 320 544 305.664 512 288 512zM672 128l-256 0C398.336 128 384 142.336 384 160S398.336 192 416 192l256 0c17.664 0 32-14.336 32-32S689.664 128 672 128zM672 320l-256 0C398.336 320 384 334.336 384 352S398.336 384 416 384l256 0C689.664 384 704 369.664 704 352S689.664 320 672 320zM672 512l-256 0C398.336 512 384 526.336 384 544S398.336 576 416 576l256 0C689.664 576 704 561.664 704 544S689.664 512 672 512z"  horiz-adv-x="1024" />

    
    <glyph glyph-name="chakanyanjingshishifenxi2" unicode="&#59346;" d="M987.52 528.64c-108.16 146.56-266.88 239.36-444.16 239.36-177.28 0-335.36-92.8-444.16-239.36-48-64.64-48-160.64 0-225.28C208 156.8 366.72 64 543.36 64c177.28 0 335.36 92.8 444.16 239.36C1035.52 368 1035.52 464 987.52 528.64zM544 192C420.48 192 320 292.48 320 416S420.48 640 544 640C667.52 640 768 539.52 768 416S667.52 192 544 192zM544 576C455.68 576 384 504.32 384 416S455.68 256 544 256C632.32 256 704 327.68 704 416S632.32 576 544 576z"  horiz-adv-x="1024" />

    
    <glyph glyph-name="dianzan" unicode="&#58902;" d="M935.161672 758.391922C878.432647 816.902524 803.01498 849.139739 722.8021 849.139739c-75.470879 0-147.870816-28.883841-203.847711-81.401961l-6.977925-6.487761-6.978948 6.535857C449.019597 820.255899 376.642173 849.139739 301.17641 849.139739c-80.21288 0-155.61622-32.257681-212.359572-90.74884-57.047274-58.911738-88.469937-137.123031-88.469937-220.35978 0-83.259262 31.422663-161.470555 88.469937-220.407875l360.713388-372.063901c16.698311-17.207917 38.884612-26.699082 62.466704-26.699082 23.586185 0 45.77351 9.491165 62.47182 26.699082 0 0 356.737844 367.969653 360.691899 372.063901 57.068763 58.909691 88.491427 137.123031 88.491427 220.407875C1023.653099 621.246379 992.207923 699.459718 935.161672 758.391922L935.161672 758.391922zM903.296941 350.206336 542.583552-21.856541c-8.138354-8.443299-19.024286-13.095249-30.608112-13.095249-11.582803 0-22.442128 4.631484-30.608112 13.115716L120.680547 350.184847c-48.563042 50.095955-75.306126 116.773564-75.306126 187.824783 0 71.000054 26.743084 137.724735 75.306126 187.771571 48.279586 49.79715 112.443955 77.216639 180.702572 77.216639 64.094784 0 125.635395-24.629957 173.33579-69.306482l37.256532-34.930557 37.284161 34.930557c47.672766 44.698015 109.234867 69.306482 173.330674 69.306482 68.284199 0 132.448568-27.445072 180.707688-77.216639 48.563042-50.046836 75.306126-116.77254 75.306126-187.771571C978.603067 466.978876 951.859983 400.302291 903.296941 350.206336L903.296941 350.206336zM903.296941 350.206336M270.429129 709.599659l-2.490727-0.025583-0.041956-0.048095c-70.797439-1.36816-127.98286-59.394738-127.98286-130.469494 0-11.860119 9.650801-21.51092 21.509896-21.51092 11.860119 0 21.516036 9.650801 21.516036 21.532409 0 48.237631 39.258119 87.517239 87.512123 87.517239 11.865235 0 21.516036 9.650801 21.516036 21.516036C291.966655 699.970348 282.289248 709.599659 270.429129 709.599659L270.429129 709.599659zM270.429129 709.599659"  horiz-adv-x="1024" />

    
    <glyph glyph-name="liuyan" unicode="&#58974;" d="M829.487911 407.222911c-29.217439-1.107217-43.718711-23.069415-43.980677-69.125357-0.424672-74.618465 0.25992-149.247162-0.275269-223.865627-0.418532-58.217936-11.900028-70.305229-70.793346-70.569242-149.243069-0.667196-298.490232-0.629333-447.733301-0.031722-61.683874 0.248663-72.132854 11.446703-72.234161 74.29817-0.287549 178.364317-0.10847 356.731704-0.077771 535.096021 0.001023 9.096169-0.13917 18.23327 0.583285 27.284413 2.218528 27.76946 17.714454 43.033096 45.226041 45.196365 14.479783 1.136893 29.103852 0.544399 43.662429 0.552585 101.923344 0.061398 203.849758-0.443092 305.767985 0.36225 37.81935 0.298805 56.615439 15.948227 57.853639 43.61024 1.286296 28.77844-16.582677 45.778626-54.342676 45.99966-127.396505 0.750083-254.82371 1.537006-382.192585-0.571005-60.902068-1.004887-100.435457-42.084491-106.665345-103.205547-1.654686-16.240893-1.251503-32.718169-1.269923-49.086975-0.105401-92.823082-0.051165-185.647187-0.051165-278.469246 0.029676 0 0.057305 0 0.084934 0 0-101.925391-1.02126-203.859991 0.317225-305.764915 1.111311-84.644819 44.12394-126.740566 129.545448-127.143749 171.081447-0.803295 342.172103-0.818645 513.25355-0.00921 85.549421 0.403183 128.425951 42.699498 129.504516 126.977973 1.11745 87.34737 0.671289 174.72544 0.104377 262.084067C875.478362 386.474354 859.378685 408.354688 829.487911 407.222911zM905.789715 761.177362c-17.720593 14.248516-37.137829 14.317077-55.447846 1.790786-10.380418-7.103792-19.064194-16.811898-28.058033-25.799596C662.621463 577.636139 502.968299 418.091446 343.549473 258.315486c-11.455913-11.481496-23.734564-23.405059-31.019481-37.509289-14.547321-28.16855 6.831592-61.061704 48.710398-62.711274 10.386558 7.755638 28.999474 18.48705 43.719734 33.126468C566.282301 351.670687 727.011982 512.712477 887.827621 673.667286c8.986675 8.994861 18.790972 17.699104 25.590841 28.234041C926.537248 722.223165 922.870742 747.442546 905.789715 761.177362z"  horiz-adv-x="1024" />

    
    <glyph glyph-name="cha" unicode="&#58956;" d="M512 848.113363C255.677147 848.113363 47.886637 640.322853 47.886637 384S255.677147-80.113363 512-80.113363s464.113363 207.79051 464.113363 464.113363S768.322853 848.113363 512 848.113363zM751.292991 159.179628c3.996011-3.996011 3.996011-10.475586 0-14.47262-1.998517-1.997494-4.617158-2.997264-7.235798-2.997264s-5.237281 0.99977-7.235798 2.997264l-224.820372 224.820372-224.820372-224.820372c-1.998517-1.997494-4.617158-2.997264-7.235798-2.997264s-5.238304 0.99977-7.235798 2.997264c-3.996011 3.996011-3.996011 10.475586 0 14.47262l224.820372 224.820372-224.820372 224.821395c-3.996011 3.996011-3.996011 10.475586 0 14.47262 3.997034 3.994987 10.475586 3.996011 14.47262 0l224.820372-224.820372 224.820372 224.820372c3.997034 3.996011 10.474562 3.997034 14.47262 0 3.996011-3.996011 3.996011-10.475586 0-14.47262l-224.820372-224.821395L751.292991 159.179628z"  horiz-adv-x="1024" />

    
    <glyph glyph-name="cha1" unicode="&#58981;" d="M517.7344-128C231.81312-128 0.02048 101.23264 0.02048 384 0.02048 666.76736 231.81312 896 517.7344 896 803.67616 896 1035.44832 666.76736 1035.44832 384 1035.44832 101.23264 803.67616-128 517.7344-128ZM799.58016 619.56096 788.2752 630.74304C778.91584 640 763.74016 640 754.3808 630.74304L533.64736 412.4672 316.06784 627.65056C306.81088 636.78464 291.79904 636.78464 282.56256 627.65056L271.38048 616.59136C262.12352 607.4368 262.12352 592.5888 271.38048 583.45472L488.96 368.27136 268.24704 149.97504C258.88768 140.71808 258.88768 125.70624 268.24704 116.44928L279.552 105.2672C288.91136 96.01024 304.10752 96.01024 313.46688 105.2672L534.17984 323.54304 751.77984 108.35968C761.01632 99.20512 776.02816 99.20512 785.28512 108.35968L796.4672 119.41888C805.70368 128.57344 805.70368 143.40096 796.4672 152.55552L578.8672 367.73888 799.58016 586.01472C808.96 595.27168 808.96 610.304 799.58016 619.56096Z"  horiz-adv-x="1036" />

    
    <glyph glyph-name="tubiaosangangpaopao" unicode="&#58914;" d="M700 544.64l-376 0c-25.728 0-46.544 20.816-46.544 46.544 0 25.712 20.816 46.544 46.544 46.544l376 0c25.728 0 46.544-20.832 46.544-46.544C746.56 565.456 725.744 544.64 700 544.64zM700 269.904l-376 0c-25.728 0-46.544 20.832-46.544 46.544 0 25.728 20.816 46.544 46.544 46.544l376 0c25.728 0 46.544-20.816 46.544-46.544C746.56 290.736 725.744 269.904 700 269.904zM736.464 407.264 287.552 407.264c-25.728 0-46.544 20.832-46.544 46.544 0 25.728 20.816 46.544 46.544 46.544l448.912 0c25.728 0 46.544-20.816 46.544-46.544C783.008 428.096 762.192 407.264 736.464 407.264zM792.32-128c-8.272 0-16.496 2.192-23.856 6.592l-222.96 133.04-103.312 0C198.368 11.648 0 210 0 453.808 0 697.648 198.368 896 442.192 896l139.632 0C825.648 896 1024 697.648 1024 453.808c0-143.712-68.736-276.224-185.136-359.312l0-175.952c0-16.736-9.008-32.24-23.552-40.448C808.192-126 800.24-128 792.32-128zM442.192 802.912c-192.496 0-349.088-156.592-349.088-349.088s156.592-349.072 349.088-349.072l116.128 0c8.416 0 16.64-2.288 23.872-6.592l163.584-97.6 0 118.72c0 16 8.192 30.88 21.728 39.376 102.32 64.544 163.408 174.864 163.408 295.168 0 192.496-156.592 349.088-349.088 349.088L442.192 802.912z"  horiz-adv-x="1024" />

    
    <glyph glyph-name="xiangqing2" unicode="&#58894;" d="M233.965043 841.926987c15.81564 16.716174 28.464058 30.086044 42.637246 45.067666 171.152751-167.652946 341.33845-334.35419 513.437785-502.933253-171.398351-168.471613-341.855234-336.022226-511.790216-503.06117-13.963404 14.413671-26.775556 27.640274-38.44669 39.690041 41.378544 42.529796 84.455824 88.400779 129.247189 132.526977 105.572338 104.001519 211.635877 207.516954 318.3697 310.321171 16.997592 16.368241 14.413671 25.568021-1.100085 40.636626C542.137211 544.238885 398.665667 685.039524 254.841073 825.47688 248.19963 831.964823 240.202269 837.06103 233.965043 841.926987z"  horiz-adv-x="1024" />

    
    <glyph glyph-name="xiangqing3" unicode="&#58951;" d="M725.018581 407.197328c-0.013303 0.013303-0.027629 0.025583-0.040932 0.038886L307.936371 824.277492c-11.989055 11.989055-31.426757 11.989055-43.415812 0-11.988032-11.989055-11.988032-31.426757 0-43.415812l395.374816-395.373793-395.374816-395.374816c-11.988032-11.989055-11.988032-31.425733 0-43.414789 5.994528-5.994528 13.851473-8.991792 21.707394-8.991792s15.712867 2.997264 21.707394 8.991792l417.08221 417.08221C737.007637 375.770572 737.007637 395.208273 725.018581 407.197328z"  horiz-adv-x="1024" />

    
    <glyph glyph-name="sangang1" unicode="&#59197;" d="M139.636364 686.545455l791.272727 0 0-46.545455-791.272727 0 0 46.545455ZM139.636364 453.818182l791.272727 0 0-46.545455-791.272727 0 0 46.545455ZM139.636364 221.090909l791.272727 0 0-46.545455-791.272727 0 0 46.545455Z"  horiz-adv-x="1024" />

    
    <glyph glyph-name="chakan" unicode="&#58888;" d="M90.865497 335.950657c-13.597693 21.795399-12.682857 49.545416 2.38021 70.355372 53.781904 74.297147 202.564485 246.593258 425.78543 246.593257 225.680972 0 365.401154-177.568185 413.568177-251.069199 13.041014-19.900236 13.84124-45.213761 2.211364-65.970504-39.126112-69.835532-153.970744-220.760916-415.780564-220.760916-259.471566 0-383.701962 149.584853-428.164617 220.85199zM519.024997 99.284493c-270.012643 0-398.762983 159.65214-441.581184 228.290403-17.068747 27.372418-15.895015 61.919235 2.980891 88.008427C135.538953 491.690698 288.571325 668.720623 519.024997 668.720623c232.507448 0 375.931998-180.582845 426.813852-258.226202 16.265452-24.830525 17.331737-56.389288 2.764974-82.362846-38.539758-68.809155-157.573805-228.847082-429.578826-228.847082z m0 537.800619c-215.870536 0-360.716458-167.877475-412.973636-240.053308-11.292184-15.616676-11.987009-36.316114-1.76111-52.720735 40.022529-64.159252 160.555719-213.392088 414.734746-213.392088 255.276011 0 366.154307 148.730393 401.991514 212.673727 8.758478 15.647375 8.140401 34.639938-1.63729 49.568952-48.071855 73.335239-183.279257 243.923452-400.354224 243.923452zM507.820817 370.553757m-109.800755 0a109.800755 109.800755 0 1 1 219.601511 0 109.800755 109.800755 0 1 1-219.601511 0ZM572.47535 413.054733m-35.589567 0a35.589566 35.589566 0 1 1 71.179133 0 35.589566 35.589566 0 1 1-71.179133 0Z"  horiz-adv-x="1024" />

    
    <glyph glyph-name="guidang" unicode="&#58905;" d="M980.48 94.72c0-46.08-35.84-81.92-81.92-81.92H128c-46.08 0-81.92 35.84-81.92 81.92V389.12c-2.56 5.12 0 12.8 5.12 20.48L250.88 747.52c12.8 17.92 40.96 33.28 61.44 33.28h417.28c23.04 0 48.64-15.36 61.44-35.84L975.36 409.6c2.56-5.12 5.12-10.24 5.12-15.36v-299.52zM87.04 414.72v-20.48 20.48z m0-320c0-23.04 17.92-40.96 40.96-40.96h770.56c23.04 0 40.96 17.92 40.96 40.96v281.6h-243.2v-81.92c0-23.04-17.92-40.96-40.96-40.96H371.2c-23.04 0-40.96 17.92-40.96 40.96v81.92H87.04v-281.6z m568.32 220.16v102.4H371.2v-102.4c0-10.24 10.24-20.48 20.48-20.48h243.2c10.24 0 20.48 7.68 20.48 20.48zM768 706.56c-10.24 20.48-38.4 35.84-61.44 35.84H335.36c-23.04 0-51.2-15.36-61.44-33.28L107.52 417.28H921.6L768 706.56zM248.32 496.64c0 10.24 10.24 20.48 20.48 20.48h486.4c10.24 0 20.48-10.24 20.48-20.48s-10.24-20.48-20.48-20.48h-486.4c-10.24 0-20.48 10.24-20.48 20.48zM716.8 558.08H309.76c-10.24 0-20.48 10.24-20.48 20.48s10.24 20.48 20.48 20.48H716.8c10.24 0 20.48-10.24 20.48-20.48-2.56-10.24-10.24-20.48-20.48-20.48zM675.84 640H350.72c-10.24 0-20.48 10.24-20.48 20.48s10.24 20.48 20.48 20.48h325.12c10.24 0 20.48-10.24 20.48-20.48 0-12.8-10.24-20.48-20.48-20.48z"  horiz-adv-x="1024" />

    
    <glyph glyph-name="jiazaizhong" unicode="&#58911;" d="M1018.082 382.44c0 22.274-1.846 44.738-4.964 67.266-0.382 3.119-0.764 6.237-1.273 9.291a518.65 518.65 0 0 1-14.573 67.266 31.819 31.819 0 0 1-39.646 21.446 31.5 31.5 0 0 1-21.637-37.101l-1.782-0.446c12.345-40.537 20.046-83.11 20.173-127.594l0.064-1.59c0-15.083-0.828-29.974-2.228-44.675l-0.063-0.382c-1.337-14.127-3.628-28-6.364-41.682-0.127-0.955-0.191-1.91-0.382-2.8-2.418-11.646-5.537-22.91-8.782-34.174-0.891-2.864-1.4-5.919-2.355-8.846-2.418-7.7-5.473-15.146-8.336-22.719a447.948 447.948 0 0 0-163.932-210.769c-1.4-0.954-2.609-2.036-4.01-2.99-4.9-3.31-10.245-6.174-15.272-9.292-7.51-4.646-14.955-9.418-22.783-13.682-2.163-1.21-4.454-2.1-6.618-3.246-11.137-5.727-22.464-11.2-34.174-16.037l-2.163-0.827a441.775 441.775 0 0 0-40.538-14.255c-1.463-0.509-3.054-0.763-4.582-1.273-12.664-3.627-25.455-6.745-38.31-9.29-4.773-0.764-9.673-1.273-14.446-1.973-9.545-1.528-19.155-3.119-28.573-4.01-8.082-0.763-16.228-0.89-24.374-1.272-6.618-0.255-13.173-0.764-19.791-0.764-9.1 0.127-18.01 0.827-26.919 1.336-6.045 0.446-12.091 0.51-18.073 1.21-6.428 0.7-12.728 1.909-19.091 2.927-8.464 1.273-16.928 2.29-25.265 4.073A445.085 445.085 0 0 0 71.72 297.93c-0.636 3.245-0.954 6.554-1.464 9.736a454.121 454.121 0 0 0-4.582 33.092c-0.636 6.873-0.763 14-1.081 20.937-0.319 7.636-0.891 15.273-0.828 22.91 0.064 8.4 0.764 16.61 1.273 24.946 0.382 6.618 0.51 13.3 1.273 19.918 0.636 6.364 1.909 12.41 2.864 18.774 1.272 8.463 2.354 16.991 4.072 25.328l1.146 4.454A444.83 444.83 0 0 0 254.87 746.96l5.282 4.009c5.919 4.01 12.155 7.382 18.265 11.073 6.554 3.945 12.854 8.082 19.6 11.773 3.755 1.973 7.7 3.627 11.455 5.473 9.546 4.773 19.091 9.546 29.082 13.682 2.737 1.082 5.664 1.973 8.4 3.118 11.074 4.328 22.338 8.464 33.983 11.964 1.591 0.51 3.31 0.827 4.9 1.273a440.694 440.694 0 0 0 125.877 16.546l-0.128 1.527a31.564 31.564 0 0 1-2.482 63.13c-22.4 0-44.228-1.91-65.801-4.71-5.091-0.636-10.246-1.527-15.337-2.355-19.664-3.182-38.883-7.254-57.72-12.6-1.909-0.51-3.818-0.7-5.727-1.273-0.827-0.19-1.591-0.509-2.355-0.763A496.377 496.377 0 0 1 327.1 856.48c-4.455-1.655-8.973-3.118-13.364-4.837-9.8-4.136-19.283-8.91-28.765-13.555-5.79-2.863-11.836-5.409-17.437-8.463-5.854-3.119-11.264-6.682-16.927-10.055A506.877 506.877 0 0 1 12.79 493.807c-0.572-2.481-1.336-4.836-1.845-7.318-1.846-8.782-2.991-17.882-4.328-26.855-1.272-7.891-2.8-15.719-3.627-23.674-0.764-6.745-0.827-13.618-1.336-20.491-0.7-10.182-1.464-20.364-1.528-30.737L0 381.422c0-6.872 0.764-13.682 1.018-20.49 0.382-8.846 0.51-17.501 1.337-26.347 1.081-11.964 2.927-23.546 4.836-35.192 0.764-4.582 1.21-9.291 2.1-13.873a519.223 519.223 0 0 1 11.773-48.683v-0.127A505.732 505.732 0 0 1 84.83 100.142l1.272-2.1c8.337-12.409 17.373-24.373 26.792-36.019l2.927-3.882a508.34 508.34 0 0 1 284.526-173.859l3.627-0.954c8.91-1.846 18.01-2.991 27.047-4.391 7.89-1.273 15.782-2.737 23.737-3.628 6.109-0.636 12.345-0.763 18.518-1.145 10.946-0.828 21.955-1.591 32.965-1.655 1.018-0.064 1.845-0.19 2.863-0.19 5.855 0 11.455 0.763 17.246 0.89 10.119 0.382 20.237 0.637 30.42 1.527 9.99 0.955 19.854 2.546 29.655 4.073 6.554 1.018 13.046 1.655 19.664 2.991 13.555 2.61 26.855 6.046 40.028 9.673 2.61 0.764 5.219 1.146 7.764 1.91l1.21 0.381c14.572 4.328 28.636 9.419 42.573 15.019 2.036 0.763 4.137 1.336 6.173 2.227 12.155 5.028 24.055 10.819 35.828 16.8 3.5 1.782 7.191 3.373 10.691 5.219 7.828 4.2 15.273 9.1 22.846 13.682 6.81 4.137 14 8.082 20.62 12.473l0.636 0.51A508.595 508.595 0 0 1 930.96 96.26l0.382 0.509c3.118 4.582 5.664 9.418 8.591 14.064a509.74 509.74 0 0 1 45.756 92.402c3.245 8.782 6.746 17.31 9.546 26.219 1.018 3.182 1.59 6.555 2.545 9.737 3.818 12.982 7.382 26.091 10.119 39.392l0.381 2.1a505.732 505.732 0 0 1 9.992 100.293c-0.128 0.191-0.064 0.318-0.064 0.446l-0.127 1.018z"  horiz-adv-x="1024" />

    
    <glyph glyph-name="guidangxiangmu" unicode="&#58976;" d="M105.472 548.124444l-39.082667-46.904888 39.082667 62.549333L480.711111 329.216c16.696889-9.756444 45.824-9.756444 62.549333 0l375.239112 234.552889 39.082666-62.549333-39.082666 46.904888 39.082666 46.904889-39.082666-62.549333-375.239112 234.524444c-16.696889 9.784889-45.852444 9.756444-62.549333 0L105.472 532.48l-39.082667 62.549333 39.082667-46.904889z m-39.082667-46.904888c-31.601778 27.192889-31.658667 66.56 0 93.809777l375.239111 242.346667c40.049778 21.020444 100.579556 21.077333 140.714667 0l375.239111-242.346667c31.601778-27.221333 31.658667-66.56 0-93.809777l-375.239111-242.346667c-40.049778-21.020444-100.579556-21.077333-140.714667 0l-375.239111 242.346667z m-7.822222-70.371556c-23.352889-29.582222-20.906667-65.450667 7.822222-93.809778l375.239111-242.346666c40.163556-20.935111 100.636444-20.878222 140.714667 0l375.239111 242.346666c28.757333 28.416 31.118222 64.256 7.822222 93.809778-3.072-2.673778-5.461333-5.290667-7.822222-7.822222l-375.239111-242.346667c-40.078222-20.963556-100.551111-20.992-140.714667 0l-375.239111 242.346667c-2.360889 2.56-4.750222 5.176889-7.822222 7.822222z m0-164.181333c-23.352889-29.582222-20.906667-65.450667 7.822222-93.809778l375.239111-242.346667c40.163556-20.935111 100.636444-20.878222 140.714667 0l375.239111 242.346667c28.757333 28.387556 31.118222 64.256 7.822222 93.809778-3.072-2.645333-5.461333-5.262222-7.822222-7.793778L582.343111 16.497778c-40.078222-20.935111-100.551111-20.963556-140.714667 0L66.389333 258.872889c-2.360889 2.531556-4.750222 5.148444-7.822222 7.793778z"  horiz-adv-x="1024" />

    
    <glyph glyph-name="shouye" unicode="&#58980;" d="M488.576 834.688a32.704 32.704 0 0 0 45.504 0 32.064 32.064 0 0 0 0-45.568L80.64 336.32a32.704 32.704 0 0 0-45.568 0 32.064 32.064 0 0 0 0 45.504L488.576 834.688zM489.216 835.328a32.064 32.064 0 0 0 45.504 0l453.504-453.504a32.192 32.192 0 1 0-45.568-45.504L489.216 789.76a32.704 32.704 0 0 0 0 45.568zM704 730.112a31.424 31.424 0 0 0 32.064 32.064h128.256c17.728 0 32.064-14.336 32.064-32a31.424 31.424 0 0 0-32-32.128h-128.32a32.064 32.064 0 0 0-32.064 32.064zM832.32 730.752c0 17.728 14.4 32.064 32.064 32.064a31.424 31.424 0 0 0 32.064-32v-128.32a32.064 32.064 0 0 0-32-32.064 31.424 31.424 0 0 0-32.128 32V730.816zM126.784 345.28a32.064 32.064 0 1 0 64.192 0v-384.832a32.064 32.064 0 1 0-64.192 0V345.28zM126.784-39.552a31.424 31.424 0 0 0 32.064 32.064h256.64c17.664 0 32-14.336 32-32a31.424 31.424 0 0 0-32-32.128h-256.64a32.064 32.064 0 0 0-32 32.064z m449.024 0a31.424 31.424 0 0 0 32 32.064h256.64c17.664 0 32-14.336 32-32a31.424 31.424 0 0 0-32-32.128h-256.64a32.064 32.064 0 0 0-32 32.064zM383.36 153.536a32.064 32.064 0 0 0 32.064 31.36 31.424 31.424 0 0 0 32.064-31.36v-192.448a32.064 32.064 0 0 0-32-31.36 31.424 31.424 0 0 0-32.128 31.36V153.6zM383.36 152.896a31.424 31.424 0 0 0 31.424 32h192.448a32.064 32.064 0 0 0 31.36-32 31.424 31.424 0 0 0-31.36-32.064H414.72a32.064 32.064 0 0 0-31.424 32zM575.808 153.536a32.064 32.064 0 0 0 32 31.36 31.424 31.424 0 0 0 32.128-31.36v-192.448a32.064 32.064 0 0 0-32.064-31.36 31.424 31.424 0 0 0-32.064 31.36V153.6z m288.64 223.808a32.704 32.704 0 0 1-32.128-32v-384.896a32.064 32.064 0 1 1 64.128 0V345.28a32.704 32.704 0 0 1-32 32.064z"  horiz-adv-x="1024" />

    
    <glyph glyph-name="yonghu" unicode="&#58993;" d="M697.01632 367.6672c-49.17248-41.8048-112.74752-67.08224-182.26176-67.08224-69.48352 0-133.02784 25.2416-182.17984 67.00032-176.67072-68.95616-304.93184-235.05408-319.42656-432.9728H1016.6272c-14.47424 197.98528-142.80192 364.14464-319.61088 433.05472zM262.9888 598.79936a253.32224 253.18912 0 1 1 506.64448 0 253.32224 253.18912 0 1 1-506.64448 0Z"  horiz-adv-x="1024" />

    
    <glyph glyph-name="shouye1" unicode="&#58898;" d="M944.833708 463.264479c9.180428 0 18.739576-0.554052 28.417949-1.648129 33.593776-3.780176 58.217522-24.160868 61.261301-50.727303 2.300367-20.001972-2.875459-40.333571-7.44814-58.259602l-1.12213-4.439428c-10.449838-41.581941-25.437291-76.830859-44.534546-104.736836-14.882253-21.727248-36.420141-37.956057-60.651142-45.68473-14.699907-4.684894-28.915895-7.630486-41.126076-8.521177a222.462331 222.462331 0 0 0-16.235822-0.568078 323.243658 323.243658 0 0 0-27.436086 1.262396l-27.478166 2.335434 98.158348 266.947784 11.761328 2.174127c0.343652 0.06312 10.022026 1.865542 26.433182 1.865542z m7.637499-62.425511l-55.222837-146.66243c18.851789 6.571476 34.659799 20.766424 45.649663 41.378555 7.805819 14.60172 14.447428 31.735247 20.920717 53.932387 3.815243 13.142951 6.361076 24.869213 9.061202 37.282779 1.367596 6.213797 1.318503 9.271602 1.171223 10.541012-5.407265 2.875459-13.465564 3.478604-21.579968 3.527697z m300.878199 2.791299c-2.55986-24.595693-6.732782-48.286669-12.406554-70.399649a341.765821 341.765821 0 0 0-20.142238-57.256699c-29.070188-63.729987-76.501233-124.40217-133.554545-170.823297-49.394773-40.207331-109.274451-66.324914-164.286889-71.662046-31.665114-3.064818-63.975453-3.485617-94.174785-3.485617l-10.569064 0.028053-58.470002-157.988932h-275.973919l9.138348 27.702592c10.716344 32.492685 24.322174 72.72807 28.249631 79.92373 4.97244 9.089255 12.574873 15.457345 21.411648 17.954084 7.932059 2.251274 16.348036 1.150184 23.690976-3.050791 14.384308-8.296751 18.073311-23.031724 10.989864-43.826202l-0.490932 0.16832c-0.974851-3.85031-2.679086-9.250562-5.323106-17.16158h142.840173l54.977371 148.82253 3.219112 3.247165c6.774862 6.823955 11.614049 6.823955 38.482055 6.823954 13.788176 0 32.759191-0.210399 56.380034-0.617171 72.60183-1.22733 108.986905 17.357953 133.07764 29.687359l1.788395 0.904718c8.46507 4.327215 17.05638 9.573174 26.257849 16.03945 15.709824 11.074023 29.51904 21.832448 42.199112 32.885431 43.833215 38.138403 76.697606 83.949373 100.479755 140.0629 20.506931 48.349789 28.340803 99.680237 22.645992 148.450825-2.917539 24.967399-16.130623 49.32464-36.251822 66.836886-13.423484 11.684182-41.652074 14.6438-61.717166 15.864117a690.958742 690.958742 0 0 1-40.880609 1.073037c-12.659032 0-21.881541-0.259493-22.912498-0.287546l-237.288478-0.007013a554.276259 554.276259 0 0 0-4.039669-11.263383l-0.287546-0.785491c-1.115117-3.064818-2.237247-6.129637-3.303271-9.194456-4.165909-12.027834-8.184538-24.111775-12.21018-36.195715-4.670867-14.026629-9.341735-28.046244-14.230015-41.988713-9.215495-26.257849-19.426881-52.396471-29.30864-77.686483-3.092872-7.918032-6.038464-15.450331-8.956003-22.982631-3.689003-9.517068-7.251767-19.083228-10.821544-28.656402l-0.315599-0.841598c-8.54923-22.947565-17.39302-46.673607-27.807791-69.677278a769.234343 769.234343 0 0 0-29.343708-58.315709 397.984549 397.984549 0 0 0-33.271163-50.25741 314.603255 314.603255 0 0 0-36.73574-39.52704c-19.335708-17.498219-33.060764-29.266561-60.531916-45.088598-80.414662-46.372034-185.081365-74.060599-279.978522-74.060599-16.109583 0-31.99474 0.792505-47.213632 2.356474-86.347926 8.871843-183.917155 66.156594-194.661553 154.860993-8.73859 72.251164 18.045258 145.154567 41.680127 209.473673l3.527697 9.587201c8.163498 22.288313 16.263876 44.618706 24.364254 66.942085l0.883678 2.447647c6.978248 19.209468 13.956496 38.432963 20.976823 57.635417 8.093365 22.211167 16.348036 44.408306 24.581667 66.577393l5.309079 14.265082h294.664402l-10.162293-28.235604c-1.044984-2.882472-105.557394-293.247712-114.49937-320.669772-1.094077-3.352364-0.750425-4.579694-0.743411-4.59372 1.935675-2.672073 11.656128-6.592515 26.433182-6.592516a69.011013 69.011013 0 0 1 8.65443 0.518985c53.785108 7.111501 69.754424 56.401074 86.656512 108.580133 3.078845 9.503041 6.122623 18.914909 9.369788 27.976111 10.98285 30.655197 21.930634 61.317407 32.878417 91.979617l0.504959 1.402663a63532.822092 63532.822092 0 0 0 50.42573 140.876445c10.91973 30.332585 21.713221 60.714262 32.513725 91.088927l5.042573 14.187935H319.203989L653.991562 895.964933l134.676675-172.485452 0.736398-5.736892c1.18525-9.138349-1.416689-17.890965-7.314886-24.63076-7.25878-8.289738-18.816722-12.083941-29.883733-9.664347-13.156978 2.854419-20.584078 12.581886-25.023505 18.388911l-0.946798 1.241356-72.854309 93.375267-12.083941 15.492412-117.592241-75.680675h107.05123l-14.699907-44.26804c-5.126733-14.026629-9.979946-27.457126-14.840173-40.90165a64816.377842 64816.377842 0 0 1-59.346666-164.013369l-10.344639-28.649389a13356.085694 13356.085694 0 0 0-24.48348-67.019232c-6.17873-16.888061-12.322393-33.811188-18.402937-50.769382-3.134952-8.78067-6.13665-17.645499-9.145362-26.517342-1.725275-5.084653-3.450551-10.169306-5.203879-15.239932l-2.770259-8.023231c-2.608953-7.560353-5.210893-15.113692-7.939072-22.603913-13.50063-37.184593-30.816503-78.913813-65.532409-103.439373-29.54008-20.829544-68.358775-28.859789-103.895239-21.453728-35.347104 7.34294-57.972056 28.032217-63.687908 58.259602-3.134952 16.586488 3.794203 37.486165 11.15117 57.481124l4.839187 13.128925 0.070133-0.028054c8.205578 22.660019 29.028108 79.495918 83.514547 228.136103H166.944935l-9.92384-28.074298a1309.876719 1309.876719 0 0 1-3.885376-10.905704l-1.570983-4.425401a11771.476412 11771.476412 0 0 1-31.756287-90.626048c-7.013314-20.205359-14.033642-40.403704-21.124103-60.581009-2.174127-6.19977-4.453455-12.497726-6.753822-18.872829-21.124103-58.498055-44.934305-124.42321-13.044764-177.983891 13.556737-22.772232 43.868281-43.237083 66.29686-52.606871 16.305956-6.823955 34.863186-11.726262 53.665881-14.180922a396.673059 396.673059 0 0 1 51.449674-3.289244c53.04871 0 108.481946 9.83968 164.770808 29.252534 56.422114 19.440907 104.294998 49.843625 138.456851 87.925922 47.367925 52.782204 74.123719 119.626103 97.46403 183.566489a34033.720892 34033.720892 0 0 0 28.354829 77.370884c10.057093 27.506219 20.149252 55.047504 30.269465 82.595803l38.496083 105.087502h38.461015c5.182839-0.1052 9.83968-0.133253 14.440415-0.133253l21.629061 0.077147 3.184045-0.007014c26.145636-0.028053 52.347378-0.028053 78.556134-0.028053l67.748616-0.077146 21.593995 0.028053c7.497233 0 14.987453-0.056107 22.484686-0.119226 12.939565-0.091173 26.320969-0.203386 39.576133 0.02104 11.796395 0.217413 23.44551 0.140266 34.659799-0.196373 15.478385-0.455865 33.018684-0.967837 50.544956-4.635801 34.849159-7.23774 64.508465-26.825927 83.486494-55.152704 17.883952-26.720728 29.294614-64.788998 30.521944-101.840338 0.399759-11.810421-0.140266-24.539587-1.648128-38.902854z"  horiz-adv-x="1255" />

    
    <glyph glyph-name="xiangqing4" unicode="&#58892;" d="M916.859259 678.874074h350.435556v-60.681481H916.859259zM805.641481 345.125926H603.306667c-27.875556 0-50.536296-22.660741-50.536297-50.536296v-202.24c0-27.875556 22.660741-50.536296 50.536297-50.536297h202.24c27.875556 0 50.536296 22.660741 50.536296 50.536297V294.58963c0.094815 27.875556-22.565926 50.536296-50.441482 50.536296zM795.496296 130.56c0-15.54963-12.61037-28.16-28.16-28.16H641.611852c-15.54963 0-28.16 12.61037-28.16 28.16V256.284444c0 15.54963 12.61037 28.16 28.16 28.16h125.819259c15.54963 0 28.16-12.61037 28.16-28.16v-125.724444zM916.859259 299.614815h350.435556v-60.681482H916.859259zM805.641481 724.385185H603.306667c-27.875556 0-50.536296-22.660741-50.536297-50.536296v-202.24c0-27.875556 22.660741-50.536296 50.536297-50.536296h202.24c27.875556 0 50.536296 22.660741 50.536296 50.536296V673.848889c0.094815 27.875556-22.565926 50.536296-50.441482 50.536296zM795.496296 509.819259c0-15.54963-12.61037-28.16-28.16-28.16H641.611852c-15.54963 0-28.16 12.61037-28.16 28.16V635.543704c0 15.54963 12.61037 28.16 28.16 28.16h125.819259c15.54963 0 28.16-12.61037 28.16-28.16v-125.724445zM916.859259 527.17037h350.435556v-60.681481H916.859259zM916.859259 147.911111h350.435556v-60.681481H916.859259z"  horiz-adv-x="1820" />

    
    <glyph glyph-name="fenxiang" unicode="&#58907;" d="M779.505821 857.584647c-85.081662 0-154.051563-68.969901-154.051563-154.051563 0-6.242405 0.47685-12.361984 1.199351-18.409313L314.18658 553.433599c-28.235321 35.127976-71.498652 57.662767-120.072363 57.662767-85.081662 0-154.051563-68.969901-154.051563-154.051563s68.969901-154.051563 154.051563-154.051562c36.479052 0 69.952501 12.744909 96.338221 33.943075l192.279066-160.958668a153.401312 153.401312 0 0 1-11.328809-57.843393c0-85.081662 68.969901-154.051563 154.051563-154.051563s154.051563 68.969901 154.051563 154.051563S710.53592 272.193043 625.454258 272.193043c-47.76451 0-90.435391-21.747266-118.692387-55.863741L321.931786 371.045566a153.336287 153.336287 0 0 1 26.233994 86.006463c0 20.056615-3.952078 39.152304-10.924208 56.730741l301.607846 127.116743c24.015918-53.833514 77.900007-91.410767 140.656403-91.410767 85.081662 0 154.051563 68.969901 154.051563 154.051563S864.587483 857.584647 779.505821 857.584647zM625.454258 241.378396c68.05955 0 123.236915-55.177365 123.236915-123.236916s-55.177365-123.236915-123.236915-123.236915-123.236915 55.177365-123.236915 123.236915 55.177365 123.236915 123.236915 123.236916zM194.114217 333.815113c-68.05955 0-123.236915 55.177365-123.236915 123.236916s55.177365 123.236915 123.236915 123.236915c68.05955 0 123.236915-55.177365 123.236915-123.236915s-55.177365-123.236915-123.236915-123.236916z m585.391604 246.481056c-68.05955 0-123.236915 55.177365-123.236915 123.236915S711.446271 826.769999 779.505821 826.769999s123.236915-55.177365 123.236915-123.236915-55.177365-123.236915-123.236915-123.236915z"  horiz-adv-x="1024" />

    
    <glyph glyph-name="fanhui" unicode="&#58975;" d="M790.7712 460.24704c53.1584-31.68768 118.38208-117.16992 145.52064-220.07424 27.13728-102.90048 22.63808-195.04768 22.63808-195.04768s-35.13216 56.74624-49.37728 76.63744-74.26944 94.00448-167.44064 136.96128c-93.16992 42.95552-248.90496 35.30496-248.90496 35.30496v-178.87104L64 419.17952 493.20576 723.2v-180.51712s103.10528-7.75936 156.9984-18.92096c90.77632-18.79808 140.56704-63.51488 140.56704-63.51488z"  horiz-adv-x="1024" />

    
    <glyph glyph-name="lianjie" unicode="&#58954;" d="M512-128C229.228089-128 0 101.228089 0 384S229.228089 896 512 896s512-229.228089 512-512-229.228089-512-512-512z m54.545067 565.020444l-1.797689 1.763556a102.206578 102.206578 0 0 1-11.002311 9.5232l-35.453156-35.441778c4.175644-2.446222 8.078222-5.393067 11.605333-8.920178l1.865956-1.763555a58.276978 58.276978 0 0 0 0-82.340978l-96.904533-96.881778a58.333867 58.333867 0 0 0-82.340978 0l-1.831822 1.797689a58.242844 58.242844 0 0 0 0 82.306845l43.815822 43.8272a149.674667 149.674667 0 0 0-10.865778 58.732089l-67.811555-67.720534c-41.836089-41.824711-41.836089-110.250667 0-152.052622l1.786311-1.797689c41.836089-41.790578 110.227911-41.790578 152.052622 0l96.881778 96.915911c41.756444 41.824711 41.756444 110.250667 0 152.052622zM707.925333 578.389333l-1.820444 1.797689c-41.801956 41.824711-110.227911 41.824711-152.052622 0l-96.881778-96.915911c-41.824711-41.790578-41.824711-110.216533 0-152.052622l1.797689-1.763556c3.504356-3.424711 7.224889-6.576356 11.002311-9.5232l35.453155 35.475911a57.844622 57.844622 0 0 0-11.582577 8.920178l-1.797689 1.763556a58.311111 58.311111 0 0 0 0 82.375111l96.904533 96.881778a58.197333 58.197333 0 0 0 82.284089 0l1.797689-1.797689a58.276978 58.276978 0 0 0 0-82.340978l-43.758933-43.8272c7.611733-18.796089 11.195733-38.8096 10.843022-58.766222l67.7888 67.754666c41.824711 41.790578 41.824711 110.216533 0.022755 152.007112z"  horiz-adv-x="1024" />

    
    <glyph glyph-name="shangjiantou" unicode="&#59006;" d="M512 893.44C229.9392 893.44 1.28 664.78592 1.28 382.72 1.28 100.6592 229.9392-128 512-128c282.07104 0 510.72 228.6592 510.72 510.72C1022.72 664.78592 794.07104 893.44 512 893.44z m46.80192-419.11296v-387.88608H457.61536V474.32704H305.82784l211.9424 204.68736 200.41216-204.68736h-159.38048z"  horiz-adv-x="1024" />

    
    <glyph glyph-name="shouye2" unicode="&#58901;" d="M1055.588689 285.285347c-15.794344 0-31.588689 5.264781-44.750643 15.794345l-436.976863 368.534704h-5.264782L128.987147 303.712082c-28.956298-23.691517-71.07455-18.426735-94.766067 7.897172l-15.794345 21.059126c-23.691517 28.956298-21.059126 71.07455 7.897172 97.398458l508.051414 421.182519c23.691517 18.426735 57.912596 18.426735 78.971723 0l152.678663-128.987146V830.190231c0 36.85347 28.956298 65.809769 65.809769 65.809769h94.766066c36.85347 0 65.809769-28.956298 65.809769-65.809769v-300.092545l126.354756-102.663239c28.956298-26.323907 31.588689-68.442159 7.897172-97.398457l-15.794344-21.059126c-18.426735-13.161954-36.85347-23.691517-55.280206-23.691517zM571.228792 735.424165c15.794344 0 31.588689-5.264781 42.118252-15.794345l436.976863-368.534704h5.264782l18.426735 21.059126v5.264781l-123.722365 100.030848c-15.794344 13.161954-23.691517 31.588689-23.691517 50.015425V830.190231h-94.766066V632.760925l-34.22108-18.426735-18.426735 13.161954-205.326478 171.105398L529.11054 764.380463 65.809769 380.051414c-2.632391 0-2.632391-2.632391 0-5.264782l15.794344-21.059126h5.264782L529.11054 719.62982c10.529563 10.529563 26.323907 15.794344 42.118252 15.794345zM923.969152-128h-229.017995c-39.485861 0-68.442159 31.588689-68.44216 68.442159v200.061697h-110.560411v-200.061697c0-39.485861-31.588689-68.442159-68.442159-68.442159H215.856041c-39.485861 0-71.07455 31.588689-71.07455 71.07455V251.064267c0 23.691517 10.529563 44.750643 26.323907 57.912597l347.475579 292.195373c28.956298 23.691517 71.07455 23.691517 100.030848 0l347.475579-292.195373c15.794344-13.161954 26.323907-36.85347 26.323907-57.912597v-305.357326c2.632391-42.118252-28.956298-73.706941-68.442159-73.706941zM510.683805 208.946015h118.457583c34.22108 0 60.544987-26.323907 60.544987-60.544987v-205.326478c0-2.632391 2.632391-5.264781 5.264782-5.264781h229.017995c2.632391 0 5.264781 2.632391 5.264781 5.264781V248.431877c0 2.632391-2.632391 7.897172-2.632391 7.897172L579.125964 551.156812c-5.264781 5.264781-13.161954 5.264781-15.794344 0L213.22365 258.96144c-2.632391-2.632391-2.632391-5.264781-2.63239-7.897173v-305.357326c0-2.632391 2.632391-5.264781 5.264781-5.264782h229.017995c2.632391 0 5.264781 2.632391 5.264781 5.264782v205.326478c0 28.956298 26.323907 57.912596 60.544988 57.912596z"  horiz-adv-x="1142" />

    
    <glyph glyph-name="fanhui1" unicode="&#58982;" d="M511.993716 849.111228c256.46185 0 465.104945-208.61796 465.104945-465.104944s-208.61796-465.104945-465.104945-465.104945-465.104945 208.61796-465.104944 465.104945 208.61796 465.104945 465.104944 465.104944m0 46.888772C229.228409 896 0 666.771591 0 384.006284s229.228409-511.993716 511.993716-511.993717 511.993716 229.228409 511.993717 511.993717S794.759024 896 511.993716 896zM213.720303 402.719063l259.704225 229.580295v-133.616033c31.795388-15.646347 63.402266-31.795388 95.511838-46.750531 22.432714-10.443465 84.201225-57.344804 94.544151-66.946257 54.039592-50.030608 146.786613-206.230164 146.786613-206.230164s-106.168947 87.820621-152.81894 104.396951c-24.745106 11.235208-65.350204 23.777421-91.389747 26.391429-56.553061 5.705576-92.646482 4.700188-92.646482 4.700188v-144.914079L213.720303 402.719063z"  horiz-adv-x="1024" />

    
    <glyph glyph-name="guidang1" unicode="&#58944;" d="M179.2 256h61.2864a76.8 76.8 0 0 0 42.5984-12.9024L417.3312 153.6h189.3376l134.2464 89.4976a76.8 76.8 0 0 0 42.5984 12.9024H844.8V332.8a25.6 25.6 0 0 0 51.2 0v-307.2a76.8 76.8 0 0 0-76.8-76.8H204.8A76.8 76.8 0 0 0 128 25.6V691.2A76.8 76.8 0 0 0 204.8 768h614.4A76.8 76.8 0 0 0 896 691.2v-186.0096a25.6 25.6 0 0 0-51.2 0V691.2a25.6 25.6 0 0 1-25.6 25.6H204.8a25.6 25.6 0 0 1-25.6-25.6v-435.2z m0-51.2V25.6a25.6 25.6 0 0 1 25.6-25.6h614.4a25.6 25.6 0 0 1 25.6 25.6v179.2h-61.2864a25.6 25.6 0 0 1-14.2336-4.3008l-135.5264-90.368a46.08 46.08 0 0 0-25.6-7.7312H415.8464a46.08 46.08 0 0 0-25.6 7.7312l-135.4752 90.368a25.6 25.6 0 0 1-14.2336 4.3008H179.2z m153.6 384h358.4a25.6 25.6 0 0 0 0-51.2h-358.4a25.6 25.6 0 0 0 0 51.2z m0-153.6h358.4a25.6 25.6 0 0 0 0-51.2h-358.4a25.6 25.6 0 0 0 0 51.2z m102.4-153.6h153.6a25.6 25.6 0 0 0 0-51.2h-153.6a25.6 25.6 0 0 0 0 51.2z"  horiz-adv-x="1024" />

    
    <glyph glyph-name="user-5" unicode="&#58881;" d="M597.2718933333333 382.20117333333326c62.654008888888875 31.81568 105.71320888888889 96.85447111111111 105.71320888888889 171.80216888888887 0 106.19904-86.39943111111111 192.5984711111111-192.59960888888887 192.5984711111111s-192.5984711111111-86.39943111111111-192.5984711111111-192.5984711111111c0-74.94769777777776 43.0592-139.9853511111111 105.71207111111111-171.80216888888887-108.83072-36.42709333333333-187.48074666666665-139.32657777777777-187.48074666666665-260.25984 0-12.873955555555554 10.436835555555556-23.314204444444442 23.314204444444442-23.314204444444442s23.315342222222224 10.439111111111112 23.315342222222224 23.314204444444442c0 125.57539555555556 102.16220444444443 227.73873777777777 227.7376 227.73873777777777s227.7376-102.16334222222221 227.7376-227.7376c0-12.875093333333334 10.437973333333332-23.315342222222224 23.315342222222224-23.315342222222224s23.315342222222224 10.439111111111112 23.315342222222224 23.314204444444442c-0.001137777777777778 120.9332622222222-78.65116444444445 223.83160888888887-187.48302222222222 260.25984zM364.4165688888889 554.0033422222222c0 80.48867555555556 65.48252444444444 145.97006222222223 145.96892444444444 145.97006222222223 80.48867555555556 0 145.97006222222223-65.48252444444444 145.97006222222223-145.97006222222223 0-80.48753777777777-65.48252444444444-145.96892444444444-145.97006222222223-145.96892444444444-80.48639999999999 0-145.96892444444444 65.48138666666667-145.96892444444444 145.96892444444444zM871.3910044444444 743.3921422222222C775.39328 839.3864533333333 647.7607822222222 892.2567111111111 512 892.2567111111111s-263.3955555555556-52.86798222222222-359.39100444444443-148.86456888888887C56.61127111111108 647.39328 3.7432888888889124 519.7619199999999 3.7432888888889124 384.0011377777777s52.86684444444444-263.3955555555556 148.86456888888887-359.3921422222222S376.23921777777775-124.25671111111114 512-124.25671111111114s263.39328 52.86684444444444 359.39100444444443 148.86456888888887S1020.2567111111111 248.24035555555554 1020.2567111111111 384s-52.86684444444444 263.39328-148.86456888888887 359.39100444444443zM512-77.62716444444447c-254.54136888888888 0-461.6271644444444 207.0846577777778-461.6271644444444 461.62830222222226 0 254.54136888888888 207.08579555555548 461.6271644444444 461.6271644444444 461.6271644444444S973.6271644444445 638.5436444444445 973.6271644444445 384c0-254.54364444444445-207.08579555555548-461.62830222222226-461.6271644444444-461.62830222222226z"  horiz-adv-x="1024" />

    
    <glyph glyph-name="chakan1" unicode="&#58885;" d="M512 76.8c-384 0-512 320-512 320s128 320 512 320 512-320 512-320-134.4-320-512-320z m0 505.6c-102.4 0-192-83.2-192-192 0-102.4 83.2-192 192-192 102.4 0 192 83.2 192 192-6.4 108.8-89.6 192-192 192z m0-313.6c-70.4 0-128 57.6-128 128h128L416 480c25.6 25.6 57.6 38.4 96 38.4 70.4 0 128-57.6 128-128-6.4-70.4-57.6-121.6-128-121.6z"  horiz-adv-x="1024" />

    
    <glyph glyph-name="cha2" unicode="&#58918;" d="M662.848 534.816a30.528 30.528 0 0 1-43.104 0L512 427.072 404.256 534.816a30.464 30.464 0 1 1-43.104-43.104l107.744-107.744-107.712-107.712a30.464 30.464 0 1 1 43.104-43.104L512 340.864l107.712-107.712a30.464 30.464 0 1 1 43.104 43.104L555.104 383.968l107.744 107.744a30.464 30.464 0 0 1 0 43.104zM512 896C229.216 896 0 666.752 0 384c0-282.784 229.216-512 512-512s512 229.216 512 512C1024 666.752 794.784 896 512 896z m0-960C264.576-64 64 136.576 64 384 64 631.392 264.576 832 512 832s448-200.608 448-448c0-247.424-200.576-448-448-448z"  horiz-adv-x="1024" />

    
    <glyph glyph-name="jiazai" unicode="&#58968;" d="M46.545455 120.242424C21.721212 120.242424 0 141.963636 0 166.787879V653.963636c0 24.824242 21.721212 46.545455 46.545455 46.545455S93.090909 681.890909 93.090909 653.963636v-490.278788c0-21.721212-21.721212-43.442424-46.545454-43.442424zM574.060606 120.242424c-24.824242 0-46.545455 21.721212-46.545454 46.545455V653.963636c0 24.824242 21.721212 46.545455 46.545454 46.545455s46.545455-18.618182 46.545455-46.545455v-490.278788c0-21.721212-21.721212-43.442424-46.545455-43.442424zM1070.545455-112.484848c-37.236364 0-68.266667 31.030303-68.266667 68.266666V809.115152c0 37.236364 31.030303 68.266667 68.266667 68.266666s68.266667-31.030303 68.266666-68.266666v-853.333334c3.10303-37.236364-31.030303-68.266667-68.266666-68.266666zM1598.060606 120.242424c-24.824242 0-46.545455 21.721212-46.545454 46.545455V653.963636c0 24.824242 21.721212 46.545455 46.545454 46.545455s46.545455-18.618182 46.545455-46.545455v-490.278788c0-21.721212-21.721212-43.442424-46.545455-43.442424z"  horiz-adv-x="1644" />

    
    <glyph glyph-name="mima" unicode="&#58886;" d="M512-128a512 512 0 1 0 512 512 512.568889 512.568889 0 0 0-512-512zM512 839.111111a455.111111 455.111111 0 1 1 455.111111-455.111111 455.623111 455.623111 0 0 1-455.111111 455.111111z m111.900444-422.286222v49.265778a111.957333 111.957333 0 1 1-223.800888 0v-49.265778H352.142222v-229.546667h319.715556V416.824889h-47.957334m-95.914666-126.634667v-53.703111h-31.971556v53.703111a32.824889 32.824889 0 0 0-15.985778 28.444445 31.971556 31.971556 0 0 0 63.943112 0 32.824889 32.824889 0 0 0-15.985778-28.444445z m63.943111 126.634667h-159.857778v49.038222A77.368889 77.368889 0 0 0 512 547.896889a77.368889 77.368889 0 0 0 79.928889-82.090667v-48.981333"  horiz-adv-x="1024" />

    
    <glyph glyph-name="cha3" unicode="&#58912;" d="M563.7 384l278 278c17.9 17.9 17.9 46.8 0 64.6-17.9 17.9-46.8 17.9-64.6 0l-278-278L234 713.7c-17.9 17.9-46.8 17.9-64.6 0-17.9-17.9-17.9-46.8 0-64.6l265-265.1-265-265.1c-17.9-17.9-17.9-46.8 0-64.6 17.9-17.9 46.8-17.9 64.6 0l265.1 265.1 278-278c17.9-17.9 46.8-17.9 64.6 0 17.9 17.9 17.9 46.8 0 64.6l-278 278z"  horiz-adv-x="1024" />

    
    <glyph glyph-name="juejin" unicode="&#58882;" d="M729.64116345 730.72306009L634.32650881 805.875l-99.5625-78.52693991-5.17887981-4.16056009 104.74137981-83.50215546 105.09051682 83.50215546-9.77586218 7.53556009z m361.21228445-291.47198236l-456.78879245-360.19396555-456.49784537 359.99030128L110.125 384.87284453l523.93965546-413.11745671 524.23060335 413.35021555-67.44181091 54.14547436z m-456.78879245-29.21120673L385.4784479 605.99353446 318.06573237 551.87715546l315.96982771-249.16810336 316.28987101 249.40086136-67.41271555 54.14547436-248.84806008-196.21551682z"  horiz-adv-x="1272" />

    
    <glyph glyph-name="fenxiang1" unicode="&#58887;" d="M747.329193 253.614907c-63.602484 0-114.484472-31.801242-152.645963-76.322982l-222.608696 127.204969c19.080745 25.440994 25.440994 50.881988 25.440994 82.68323 0 25.440994-6.360248 50.881988-12.720497 69.962733L601.043478 577.987578c38.161491-38.161491 89.043478-63.602484 146.285715-63.602485 108.124224 0 190.807453 89.043478 190.807453 190.807454s-89.043478 190.807453-190.807453 190.807453-190.807453-89.043478-190.807454-190.807453c0-19.080745 0-38.161491 6.360249-57.242236l-222.608696-127.204969c-38.161491 38.161491-89.043478 63.602484-146.285714 63.602484-101.763975 0-190.807453-89.043478-190.807454-197.167702s89.043478-197.167702 197.167702-197.167702c50.881988 0 101.763975 19.080745 133.565217 50.881988l235.329193-133.565217c-6.360248-12.720497-6.360248-31.801242-6.360248-44.52174 0-101.763975 82.68323-190.807453 190.807453-190.807453s190.807453 82.68323 190.807453 190.807453-89.043478 190.807453-197.167701 190.807454z m0 572.42236c63.602484 0 120.84472-50.881988 120.84472-120.84472 0-63.602484-50.881988-120.84472-120.84472-120.844721-63.602484 0-120.84472 50.881988-120.844721 120.844721 6.360248 63.602484 57.242236 120.84472 120.844721 120.84472zM200.347826 259.975155c-69.962733 0-127.204969 57.242236-127.204969 127.204969s57.242236 127.204969 127.204969 127.204969 127.204969-57.242236 127.204969-127.204969-57.242236-127.204969-127.204969-127.204969z m546.981367-311.652174c-63.602484 0-114.484472 50.881988-114.484473 114.484472s50.881988 114.484472 114.484473 114.484472 114.484472-50.881988 114.484472-114.484472-50.881988-114.484472-114.484472-114.484472z"  horiz-adv-x="1024" />

    
    <glyph glyph-name="dianzan1" unicode="&#58948;" d="M691.7 761.2c-73.5 0-131.7-37.5-176.4-99-45.1 61.5-102.9 99-176.4 99C206.2 761.2 98 641.9 98 494.7c0-87.8 38.8-149.3 69.8-198.6 89.7-144 306.5-298.6 316-306.1 9.4-7.5 19.9-10.7 31-10.7 11 0 21.5 3.7 31 10.7 9.4 7.5 226.2 162.7 316.5 306.1 31 49.2 69.8 110.8 69.8 198.6-0.1 146.7-108.2 266.5-240.4 266.5zM261.2 747C166.4 711.2 98 611.7 98 494.7c0-15.3 1.2-29.9 3.3-43.7 7.8 120.9 68.8 227.3 159.9 296zM434.3 27.6c27.9-21.8 46.8-35.4 49.5-37.5 9.4-7.5 19.9-10.7 31-10.7 11 0 21.5 3.7 31 10.7 2.9 2.3 25.3 18.5 57.6 44-31.8-8.1-65.2-12.4-99.6-12.4-23.7-0.1-46.9 2-69.5 5.9zM731.8 757.5C837.6 684.8 907 563 907 424.9c0-19.3-1.4-38.3-4-56.9 16.5 35.5 29 76.9 29 126.7 0 131.5-86.9 241.5-200.2 262.8zM343.6 761.2c-1.5 0-3.1 0.1-4.6 0.1-27.2 0-53.4-5-77.8-14.3-91.1-68.7-152.1-175.1-159.8-296 10-65.2 40.9-114.2 66.5-154.9 4.9-7.8 10.2-15.7 15.8-23.6-28.6 50.6-45 109-45 171.3-0.1 141.3 84 262.8 204.9 317.4zM731.8 757.5c-13.1 2.5-26.5 3.8-40.1 3.8-17.3 0-33.8-2.1-49.4-6.1 114-57.2 192.3-175.1 192.3-311.4 0-192.2-155.8-348-348-348-80.9 0-155.4 27.6-214.5 74 57.5-57.9 120.1-109.3 162.3-142.2 22.6-3.9 45.8-6 69.4-6 34.4 0 67.7 4.3 99.6 12.4 72.9 57.6 196.3 162.7 258.9 262.1 13.4 21.3 28.2 44.8 40.8 71.8 2.6 18.6 4 37.6 4 56.9-0.1 138.2-69.5 260-175.3 332.7zM834.6 443.8c0 136.2-78.3 254.2-192.3 311.3-19.9-5.1-38.4-13.2-55.7-24C690 685.9 762.2 582.8 762.2 462.8c0-161.7-131.1-292.7-292.7-292.7s-292.8 131-292.8 292.7c0 140.6 99.1 258 231.2 286.2-19.9 7.5-41.3 11.7-64.3 12.2-120.9-54.5-205-176.1-205-317.3 0-62.3 16.4-120.7 45-171.3 24.7-34.9 55.8-69.8 88.5-102.7 59.1-46.3 133.6-74 214.5-74 192.2-0.1 348 155.7 348 347.9zM176.7 462.8c0-161.7 131.1-292.7 292.7-292.7s292.7 131.1 292.7 292.7c0 120-72.2 223.1-175.6 268.3-14-8.8-27.2-19.4-39.5-31.6 84-36.6 142.7-120.3 142.7-217.8 0-131.2-106.3-237.5-237.5-237.5S214.8 350.6 214.8 481.7s106.3 237.5 237.5 237.5c3 0 5.9-0.1 8.8-0.2-16.5 12.7-34.2 22.9-53.2 30-132.1-28.2-231.2-145.6-231.2-286.2zM214.8 481.7c0-131.2 106.3-237.5 237.5-237.5s237.5 106.3 237.5 237.5c0 97.4-58.7 181.2-142.7 217.8-10.8-10.7-21-22.7-30.6-35.7 59.8-29.9 100.9-91.7 100.9-163.1 0-100.6-81.6-182.2-182.2-182.2S253 400.1 253 500.7s81.6 182.2 182.2 182.2c27.8 0 54.2-6.2 77.8-17.4-15.7 20.9-32.9 38.9-51.8 53.5-2.9 0.1-5.9 0.2-8.8 0.2-131.3 0-237.6-106.3-237.6-237.5zM252.9 500.7c0-100.6 81.6-182.2 182.2-182.2s182.2 81.6 182.2 182.2c0 71.4-41.1 133.2-100.9 163.1-0.4-0.5-0.8-1-1.1-1.5-0.8 1.1-1.6 2.2-2.5 3.3-23.6 11.1-49.9 17.4-77.8 17.4-100.6-0.1-182.1-81.7-182.1-182.3z m292 19c0-70.1-56.8-127-127-127s-127 56.8-127 127 56.8 127 127 127 127-56.9 127-127zM417.9 519.7m-127 0a127 127 0 1 1 254 0 127 127 0 1 1-254 0ZM691.7 743.2c29.7 0 58.5-6.5 85.7-19.3 26.4-12.4 50.2-30.3 70.7-53 20.6-22.9 36.8-49.5 48.2-79.1 11.8-30.8 17.8-63.4 17.8-97.1 0-36.5-7.1-71.4-21.8-106.6-13-31.1-30-58.2-45-82.1l-0.2-0.3c-34.4-54.6-91.8-117.7-170.6-187.3-62.4-55.2-117.9-96.5-136.2-110-3-2.2-4.4-3.3-5.3-4-6.4-4.7-13.2-7-20.1-7-7.5 0-14 2.2-19.8 6.8-0.9 0.7-2.3 1.8-5.8 4.3-18.3 13.5-73.9 54.8-136.2 109.9-78.6 69.5-135.8 132.6-170 187.3l-0.2 0.4c-15 23.9-32.1 51-45 82.1-14.7 35.2-21.8 70.1-21.8 106.6 0 137 100 248.5 222.9 248.5 32.3 0 62.5-8.1 89.7-24 26-15.2 50.3-37.9 72.1-67.7l14.6-19.9 14.5 20c21.5 29.6 45.6 52.3 71.8 67.6 27.4 15.9 57.6 23.9 90 23.9m0 18c-73.5 0-131.7-37.5-176.4-99-45.1 61.5-102.9 99-176.4 99C206.2 761.2 98 641.9 98 494.7c0-87.8 38.8-149.3 69.8-198.6 89.7-144 306.5-298.6 316-306.1 9.4-7.5 19.9-10.7 31-10.7 11 0 21.5 3.7 31 10.7 9.4 7.5 226.2 162.7 316.5 306.1 31 49.2 69.8 110.8 69.8 198.6-0.1 146.7-108.2 266.5-240.4 266.5zM603.4 626c-36.8 0-65.9-19.1-88.2-50.6-22.6 31.4-51.5 50.6-88.2 50.6-66.4 0-120.5-61-120.5-136.1 0-44.8 19.4-76.3 34.9-101.4 44.9-73.5 153.3-152.5 158-156.4 4.7-3.8 10-5.5 15.5-5.5s10.8 1.9 15.5 5.5c4.7 3.8 113.1 83.1 158.3 156.4 15.5 25.2 34.9 56.6 34.9 101.4 0 74.8-54.1 136.1-120.2 136.1zM225 622c-4 0-8 1.3-11.3 4-7.7 6.3-8.9 17.6-2.7 25.3 57.5 71 144.2 62.6 147.9 62.2 9.9-1.1 17-9.9 16-19.8-1.1-9.9-9.9-17-19.8-16-0.6 0.1-18.6 1.7-41.9-3.7-30.6-7-55.5-22.3-74.2-45.4-3.6-4.3-8.8-6.6-14-6.6zM187.4 560.4c-2.4 0-4.8 0.5-7.1 1.5-9.1 3.9-13.4 14.5-9.5 23.6l5.3 12.3c3.9 9.1 14.5 13.4 23.6 9.5s13.4-14.5 9.5-23.6l-5.3-12.3c-2.9-7-9.5-11-16.5-11z"  horiz-adv-x="1024" />

    
    <glyph glyph-name="lianjie1" unicode="&#58934;" d="M460.035821-69.366621c-125.04749 0-226.752782 101.705292-226.752782 226.752781 0 125.04749 101.705292 226.752782 226.752782 226.752782 125.04749 0 226.752782-101.705292 226.752781-226.752782 0.138942-125.04749-101.705292-226.752782-226.752781-226.752781z m0 352.633921c-69.331886 0-125.88114-56.410312-125.88114-125.88114 0-69.331886 56.410312-125.742198 125.88114-125.742198 69.331886 0 125.88114 56.410312 125.88114 125.742198S529.367707 283.2673 460.035821 283.2673z m0 0M800.442877 455.693894c-105.317775 0-191.044776 85.727001-191.044777 191.044776S695.125102 837.783446 800.442877 837.783446s191.044776-85.727001 191.044776-191.044776c0.138942-105.317775-85.58806-191.044776-191.044776-191.044776z m0 281.217911c-49.741113 0-90.173134-40.432022-90.173135-90.173135 0-49.741113 40.432022-90.173134 90.173135-90.173134 49.741113 0 90.173134 40.432022 90.173134 90.173134 0 49.741113-40.432022 90.173134-90.173134 90.173135z m0 0M1000.379919 29.83772c-79.474627 0-144.082497 64.60787-144.082497 144.082497S920.905292 318.002714 1000.379919 318.002714s144.082497-64.60787 144.082496-144.082497S1079.854545 29.83772 1000.379919 29.83772z m0 187.15441c-23.759023 0-43.071913-19.31289-43.071914-43.071913s19.31289-43.071913 43.071914-43.071913 43.071913 19.31289 43.071913 43.071913-19.31289 43.071913-43.071913 43.071913z m0 0M669.420896 568.236635l83.226051-57.10502-157.698779-229.670557-83.226051 57.105021 157.698779 229.670556z m0 0M897.007327 535.446404L1006.076526 304.108548l-91.423609-43.071913-109.069199 231.337856 91.423609 43.071913z m0 0M906.733243 528.916147H696.792402c-4.307191 0-7.919674 3.612483-7.919675 7.919674V750.111262c0 4.307191 3.612483 7.919674 7.919675 7.919674h209.940841c4.307191 0 7.919674-3.612483 7.919674-7.919674v-213.275441c-0.138942-4.307191-3.612483-7.919674-7.919674-7.919674zM602.034193 9.69118H308.03365c-4.307191 0-7.919674 3.612483-7.919674 7.919675v298.724559c0 4.307191 3.612483 7.919674 7.919674 7.919674h294.139484c4.307191 0 7.919674-3.612483 7.919675-7.919674v-298.724559c-0.138942-4.446133-3.612483-7.919674-8.058616-7.919675zM1069.711805 88.054274H930.075441c-4.307191 0-7.919674 3.612483-7.919674 7.919674V237.833379c0 4.307191 3.612483 7.919674 7.919674 7.919674h139.636364c4.307191 0 7.919674-3.612483 7.919674-7.919674v-141.998372c-0.138942-4.307191-3.612483-7.780733-7.919674-7.780733z"  horiz-adv-x="1425" />

    
    <glyph glyph-name="dianzan2" unicode="&#58967;" d="M691.7 761.2c-73.5 0-131.7-37.5-176.4-99-45.1 61.5-102.9 99-176.4 99C206.2 761.2 98 641.9 98 494.7c0-87.8 38.8-149.3 69.8-198.6 89.7-144 306.5-298.6 316-306.1 9.4-7.5 19.9-10.7 31-10.7 11 0 21.5 3.7 31 10.7 9.4 7.5 226.2 162.7 316.5 306.1 31 49.2 69.8 110.8 69.8 198.6-0.1 146.7-108.2 266.5-240.4 266.5zM261.2 747C166.4 711.2 98 611.7 98 494.7c0-15.3 1.2-29.9 3.3-43.7 7.8 120.9 68.8 227.3 159.9 296zM434.3 27.6c27.9-21.8 46.8-35.4 49.5-37.5 9.4-7.5 19.9-10.7 31-10.7 11 0 21.5 3.7 31 10.7 2.9 2.3 25.3 18.5 57.6 44-31.8-8.1-65.2-12.4-99.6-12.4-23.7-0.1-46.9 2-69.5 5.9zM731.8 757.5C837.6 684.8 907 563 907 424.9c0-19.3-1.4-38.3-4-56.9 16.5 35.5 29 76.9 29 126.7 0 131.5-86.9 241.5-200.2 262.8zM343.6 761.2c-1.5 0-3.1 0.1-4.6 0.1-27.2 0-53.4-5-77.8-14.3-91.1-68.7-152.1-175.1-159.8-296 10-65.2 40.9-114.2 66.5-154.9 4.9-7.8 10.2-15.7 15.8-23.6-28.6 50.6-45 109-45 171.3-0.1 141.3 84 262.8 204.9 317.4zM731.8 757.5c-13.1 2.5-26.5 3.8-40.1 3.8-17.3 0-33.8-2.1-49.4-6.1 114-57.2 192.3-175.1 192.3-311.4 0-192.2-155.8-348-348-348-80.9 0-155.4 27.6-214.5 74 57.5-57.9 120.1-109.3 162.3-142.2 22.6-3.9 45.8-6 69.4-6 34.4 0 67.7 4.3 99.6 12.4 72.9 57.6 196.3 162.7 258.9 262.1 13.4 21.3 28.2 44.8 40.8 71.8 2.6 18.6 4 37.6 4 56.9-0.1 138.2-69.5 260-175.3 332.7zM834.6 443.8c0 136.2-78.3 254.2-192.3 311.3-19.9-5.1-38.4-13.2-55.7-24C690 685.9 762.2 582.8 762.2 462.8c0-161.7-131.1-292.7-292.7-292.7s-292.8 131-292.8 292.7c0 140.6 99.1 258 231.2 286.2-19.9 7.5-41.3 11.7-64.3 12.2-120.9-54.5-205-176.1-205-317.3 0-62.3 16.4-120.7 45-171.3 24.7-34.9 55.8-69.8 88.5-102.7 59.1-46.3 133.6-74 214.5-74 192.2-0.1 348 155.7 348 347.9zM176.7 462.8c0-161.7 131.1-292.7 292.7-292.7s292.7 131.1 292.7 292.7c0 120-72.2 223.1-175.6 268.3-14-8.8-27.2-19.4-39.5-31.6 84-36.6 142.7-120.3 142.7-217.8 0-131.2-106.3-237.5-237.5-237.5S214.8 350.6 214.8 481.7s106.3 237.5 237.5 237.5c3 0 5.9-0.1 8.8-0.2-16.5 12.7-34.2 22.9-53.2 30-132.1-28.2-231.2-145.6-231.2-286.2zM214.8 481.7c0-131.2 106.3-237.5 237.5-237.5s237.5 106.3 237.5 237.5c0 97.4-58.7 181.2-142.7 217.8-10.8-10.7-21-22.7-30.6-35.7 59.8-29.9 100.9-91.7 100.9-163.1 0-100.6-81.6-182.2-182.2-182.2S253 400.1 253 500.7s81.6 182.2 182.2 182.2c27.8 0 54.2-6.2 77.8-17.4-15.7 20.9-32.9 38.9-51.8 53.5-2.9 0.1-5.9 0.2-8.8 0.2-131.3 0-237.6-106.3-237.6-237.5zM252.9 500.7c0-100.6 81.6-182.2 182.2-182.2s182.2 81.6 182.2 182.2c0 71.4-41.1 133.2-100.9 163.1-0.4-0.5-0.8-1-1.1-1.5-0.8 1.1-1.6 2.2-2.5 3.3-23.6 11.1-49.9 17.4-77.8 17.4-100.6-0.1-182.1-81.7-182.1-182.3z m292 19c0-70.1-56.8-127-127-127s-127 56.8-127 127 56.8 127 127 127 127-56.9 127-127zM417.9 519.7m-127 0a127 127 0 1 1 254 0 127 127 0 1 1-254 0ZM691.7 743.2c29.7 0 58.5-6.5 85.7-19.3 26.4-12.4 50.2-30.3 70.7-53 20.6-22.9 36.8-49.5 48.2-79.1 11.8-30.8 17.8-63.4 17.8-97.1 0-36.5-7.1-71.4-21.8-106.6-13-31.1-30-58.2-45-82.1l-0.2-0.3c-34.4-54.6-91.8-117.7-170.6-187.3-62.4-55.2-117.9-96.5-136.2-110-3-2.2-4.4-3.3-5.3-4-6.4-4.7-13.2-7-20.1-7-7.5 0-14 2.2-19.8 6.8-0.9 0.7-2.3 1.8-5.8 4.3-18.3 13.5-73.9 54.8-136.2 109.9-78.6 69.5-135.8 132.6-170 187.3l-0.2 0.4c-15 23.9-32.1 51-45 82.1-14.7 35.2-21.8 70.1-21.8 106.6 0 137 100 248.5 222.9 248.5 32.3 0 62.5-8.1 89.7-24 26-15.2 50.3-37.9 72.1-67.7l14.6-19.9 14.5 20c21.5 29.6 45.6 52.3 71.8 67.6 27.4 15.9 57.6 23.9 90 23.9m0 18c-73.5 0-131.7-37.5-176.4-99-45.1 61.5-102.9 99-176.4 99C206.2 761.2 98 641.9 98 494.7c0-87.8 38.8-149.3 69.8-198.6 89.7-144 306.5-298.6 316-306.1 9.4-7.5 19.9-10.7 31-10.7 11 0 21.5 3.7 31 10.7 9.4 7.5 226.2 162.7 316.5 306.1 31 49.2 69.8 110.8 69.8 198.6-0.1 146.7-108.2 266.5-240.4 266.5zM603.4 626c-36.8 0-65.9-19.1-88.2-50.6-22.6 31.4-51.5 50.6-88.2 50.6-66.4 0-120.5-61-120.5-136.1 0-44.8 19.4-76.3 34.9-101.4 44.9-73.5 153.3-152.5 158-156.4 4.7-3.8 10-5.5 15.5-5.5s10.8 1.9 15.5 5.5c4.7 3.8 113.1 83.1 158.3 156.4 15.5 25.2 34.9 56.6 34.9 101.4 0 74.8-54.1 136.1-120.2 136.1zM225 622c-4 0-8 1.3-11.3 4-7.7 6.3-8.9 17.6-2.7 25.3 57.5 71 144.2 62.6 147.9 62.2 9.9-1.1 17-9.9 16-19.8-1.1-9.9-9.9-17-19.8-16-0.6 0.1-18.6 1.7-41.9-3.7-30.6-7-55.5-22.3-74.2-45.4-3.6-4.3-8.8-6.6-14-6.6zM187.4 560.4c-2.4 0-4.8 0.5-7.1 1.5-9.1 3.9-13.4 14.5-9.5 23.6l5.3 12.3c3.9 9.1 14.5 13.4 23.6 9.5s13.4-14.5 9.5-23.6l-5.3-12.3c-2.9-7-9.5-11-16.5-11z"  horiz-adv-x="1024" />

    
    <glyph glyph-name="fanhui2" unicode="&#58919;" d="M723.2 115.2L441.6 396.8l275.2 275.2c12.8 12.8 12.8 38.4 0 51.2-12.8 12.8-38.4 12.8-51.2 0L364.8 428.8s0-6.4-6.4-6.4c-12.8-12.8-12.8-38.4 6.4-57.6l307.2-307.2c12.8-12.8 38.4-12.8 57.6 0 6.4 19.2 6.4 44.8-6.4 57.6z"  horiz-adv-x="1024" />

    
    <glyph glyph-name="csdn" unicode="&#58936;" d="M512-128C229.2224-128 0 101.2224 0 384 0 666.7776 229.2224 896 512 896c282.7776 0 512-229.2224 512-512 0-282.7776-229.2224-512-512-512z m17.066667 413.525333c34.850133-4.352 68.778667-5.12 102.741333-2.0992 23.04 2.048 44.817067 8.362667 64.170667 21.9136 38.212267 26.794667 49.783467 85.1968 24.251733 123.050667-14.626133 21.7088-36.8128 30.344533-60.757333 35.498667-35.054933 7.543467-70.4512 5.751467-105.847467 3.413333-5.666133-0.3584-6.7584-3.072-7.236267-8.209067-3.072-32.682667-6.536533-65.314133-9.813333-97.962666-2.5088-24.814933-4.932267-49.629867-7.509333-75.605334z m53.4016 33.928534c1.962667 20.906667 3.6352 39.338667 5.4272 57.770666 1.553067 15.906133 3.413333 31.778133 4.727466 47.701334 0.3584 4.283733 1.553067 6.656 5.956267 6.382933 15.616-1.041067 31.709867-0.034133 46.728533-3.652267 36.488533-8.823467 48.725333-54.306133 23.3472-83.029333-15.8208-17.902933-36.7616-23.586133-59.255466-25.088-8.465067-0.546133-17.015467-0.085333-26.9312-0.085333zM512 461.704533c-2.184533 0.648533-3.5328 1.1776-4.932267 1.4336-37.717333 6.877867-75.690667 8.328533-113.646933 2.816-20.974933-3.037867-41.0112-9.489067-57.480533-23.330133-22.9888-19.319467-21.640533-46.848 4.4032-62.0032 13.056-7.594667 28.023467-12.509867 42.5984-17.288533 14.08-4.608 28.996267-6.826667 43.144533-11.264 12.5952-3.925333 14.011733-14.318933 3.584-22.306134-3.345067-2.56-7.441067-5.085867-11.537067-5.751466-11.195733-1.826133-22.698667-4.386133-33.826133-3.566934-24.098133 1.774933-48.042667 5.461333-72.5504 8.430934-1.365333-10.615467-2.935467-23.0912-4.5568-35.9424 4.181333-1.365333 7.68-2.730667 11.264-3.618134 33.9456-8.4992 68.386133-9.608533 102.912-5.12 20.087467 2.6112 39.4752 7.901867 56.695467 19.029334 28.603733 18.4832 36.693333 57.1904-4.676267 75.383466-14.506667 6.382933-30.190933 10.410667-45.482667 15.086934-11.4176 3.4816-23.313067 5.614933-34.525866 9.5232-9.7792 3.413333-11.144533 12.202667-3.037867 18.397866 4.6592 3.549867 10.717867 6.997333 16.384 7.3728a480.853333 480.853333 0 0 0 53.384533 0.853334c15.377067-0.699733 30.651733-3.549867 46.4896-5.5296L512 461.704533z m257.143467-2.048L750.933333 281.7024h54.152534c4.778667 45.636267 9.710933 90.7264 14.062933 135.8848 0.6144 6.365867 2.3552 8.840533 8.686933 9.0112 11.434667 0.273067 22.8864 1.979733 34.286934 1.570133 23.722667-0.853333 42.3936-9.728 38.4-43.264-2.901333-24.2688-5.597867-48.571733-8.2432-72.874666-1.092267-10.069333-1.826133-20.189867-2.730667-30.4128h55.330133c3.584 35.259733 7.9872 70.058667 10.496 104.994133 3.413333 47.4624-17.7664 73.3184-64.682666 80.213333-40.96 6.007467-81.339733 0.341333-121.5488-7.133866z m-483.498667-134.6048c-8.738133-1.297067-16.384-2.798933-24.098133-3.4816-25.6512-2.235733-51.319467-3.9424-76.305067 4.266667-13.909333 4.590933-24.6784 12.578133-29.7984 25.9584-7.901867 20.701867 0.887467 47.104 19.831467 60.3136 17.373867 12.117333 37.717333 15.9232 58.453333 15.9232 22.545067 0.017067 45.090133-2.423467 68.232533-3.84L307.2 463.701333c-15.069867 1.723733-29.4912 3.925333-43.997867 4.9152-41.0112 2.798933-80.64-2.6112-117.469866-20.462933-30.020267-14.557867-52.053333-36.010667-58.6752-68.130133-7.850667-38.144 11.537067-69.495467 51.7632-85.845334 19.1488-7.765333 39.287467-12.509867 60.0064-12.5952 24.746667-0.1024 49.493333 1.570133 74.205866 2.952534 3.106133 0.170667 8.311467 2.901333 8.669867 5.034666 1.979733 11.554133 2.730667 23.278933 3.9424 35.464534z"  horiz-adv-x="1024" />

    
    <glyph glyph-name="liuyanmoban" unicode="&#58955;" d="M608.256 214.016l-61.44-24.576-8.192 65.536zM987.136 693.248l-22.528 14.336 14.336 24.576c6.144 10.24 2.048 22.528-8.192 28.672 8.192 12.288 12.288 26.624 12.288 40.96 0 28.672-14.336 55.296-40.96 71.68-18.432 10.24-40.96 14.336-61.44 8.192-20.48-6.144-38.912-18.432-49.152-38.912-4.096 2.048-10.24 4.096-16.384 2.048-4.096-2.048-10.24-4.096-12.288-10.24l-131.072-225.28H40.96c-10.24 0-20.48-10.24-20.48-20.48v-534.528c0-12.288 10.24-20.48 20.48-20.48h268.288V-66.56c0-8.192 4.096-14.336 10.24-18.432 4.096-2.048 6.144-2.048 10.24-2.048s8.192 2.048 12.288 4.096l174.08 116.736H819.2c10.24 0 20.48 8.192 20.48 20.48V492.544l104.448 180.224 22.528-12.288s2.048-2.048 0-6.144c0-8.192-6.144-28.672-49.152-63.488-38.912-30.72-57.344-57.344-57.344-81.92 0-14.336 4.096-26.624 16.384-36.864 4.096-4.096 8.192-6.144 14.336-6.144 6.144 0 10.24 2.048 14.336 6.144 8.192 8.192 8.192 20.48 0 28.672-4.096 2.048-4.096 4.096-4.096 4.096 0 4.096 4.096 20.48 43.008 51.2 57.344 45.056 65.536 79.872 65.536 102.4-2.048 14.336-10.24 28.672-22.528 34.816zM798.72 74.752H507.904c-4.096 0-8.192-2.048-12.288-4.096l-145.408-100.352v81.92c0 12.288-10.24 20.48-20.48 20.48H61.44V568.32h585.728l-153.6-266.24c-2.048-2.048-2.048-6.144-2.048-10.24v-4.096l12.288-88.064H163.84c-10.24 0-20.48-10.24-20.48-20.48s10.24-20.48 20.48-20.48h346.112c0-6.144 4.096-12.288 10.24-14.336 4.096-2.048 6.144-2.048 10.24-2.048 2.048 0 4.096 0 8.192 2.048l120.832 49.152h2.048c2.048 0 2.048 2.048 4.096 2.048h2.048l2.048 2.048c2.048 2.048 2.048 2.048 2.048 4.096L798.72 420.864v-346.112z m-260.096 180.224l69.632-38.912-59.392-24.576-10.24 63.488zM839.68 574.464l-40.96-71.68-151.552-264.192-34.816 20.48-71.68 40.96L694.272 568.32l24.576 40.96 108.544 188.416 71.68-40.96 34.816-20.48-94.208-161.792z m96.256 206.848l-71.68 40.96c6.144 10.24 14.336 16.384 24.576 18.432 4.096 0 6.144 2.048 10.24 2.048 8.192 0 14.336-2.048 20.48-6.144 20.48-10.24 26.624-34.816 16.384-55.296zM798.72 420.864v-346.112H501.76l-4.096-4.096-145.408-100.352v81.92c0 12.288-10.24 20.48-20.48 20.48H61.44V568.32h585.728l-153.6-266.24c-2.048-2.048-2.048-6.144-2.048-10.24v-4.096l12.288-88.064H163.84c-10.24 0-20.48-10.24-20.48-20.48s10.24-20.48 20.48-20.48h346.112c0-6.144 4.096-12.288 10.24-14.336 4.096-2.048 6.144-2.048 10.24-2.048 2.048 0 4.096 0 8.192 2.048l120.832 49.152h2.048c2.048 0 2.048 2.048 4.096 2.048h2.048l2.048 2.048c2.048 2.048 2.048 2.048 2.048 4.096L798.72 420.864zM897.67936 756.10112l-84.992-147.21024-23.552-40.79616-178.176-308.61312-70.94272 40.96 154.624 267.81696 23.552 40.79616 108.544 188.0064zM933.15072 735.62112l-93.184-161.3824-40.96-70.9632-152.576-264.27392-35.47136 20.48 178.176 308.61312 23.552 40.79616 84.992 147.21024zM935.89504 781.33248l-70.94272 40.96c5.12 8.86784 13.78304 15.68768 24.9856 18.67776 2.78528 0.75776 7.3728 0.49152 10.15808 1.2288 7.3728 0.47104 13.7216-0.8192 20.80768-4.9152 19.49696-11.264 26.25536-36.4544 14.99136-55.95136zM606.43328 214.79424l-59.2896-24.8832-8.11008 63.7952zM490.94656 293.29408s-1.024-1.76128 0.75776-2.78528l0.73728-2.80576-1.49504 5.59104zM163.84 445.44h225.28c12.288 0 20.48-8.192 20.48-20.48s-8.192-20.48-20.48-20.48H163.84c-12.288 0-20.48 8.192-20.48 20.48s8.192 20.48 20.48 20.48zM163.84 322.56h225.28c12.288 0 20.48-8.192 20.48-20.48s-8.192-20.48-20.48-20.48H163.84c-12.288 0-20.48 8.192-20.48 20.48s8.192 20.48 20.48 20.48z"  horiz-adv-x="1024" />

    
    <glyph glyph-name="lianjie2" unicode="&#59542;" d="M477.242182 314.181818c-6.027636 0-12.055273 1.512727-16.570182 6.050909C439.586909 341.469091 430.545455 367.232 430.545455 397.544727c0 30.301091 9.041455 54.551273 30.126545 75.764364l135.563636 136.389818C617.332364 630.923636 641.431273 640 671.557818 640s54.225455-9.088 75.310546-30.312727c43.694545-43.938909 43.694545-110.626909 0-153.053091l-90.379637-89.413818c-9.029818-9.088-21.085091-9.088-30.126545 0-9.029818 9.099636-9.029818 21.213091 0 30.312727l90.379636 90.926545c25.611636 25.762909 25.611636 65.163636 0 90.926546-12.043636 12.125091-28.625455 18.176-46.685091 18.176-18.082909 0-31.639273-6.050909-43.694545-18.176L490.798545 442.996364c-25.6-25.762909-25.6-65.163636 0-90.926546 9.041455-9.099636 9.041455-21.213091 0-30.312727-3.013818-3.025455-7.528727-7.575273-13.556363-7.575273zM364.078545 104.727273c-28.625455 0-54.225455 9.076364-75.310545 30.242909-43.694545 43.845818-43.694545 111.872 0 155.717818l88.866909 86.178909c9.041455 9.076364 22.597818 9.076364 31.639273 0 9.029818-9.076364 9.029818-22.667636 0-31.744l-88.878546-86.178909c-25.6-25.704727-27.112727-68.037818-1.512727-92.229818 25.611636-24.192 67.793455-24.192 93.393455 0l132.561454 136.075636c24.098909 24.192 18.071273 71.063273 0 89.204364-9.041455 9.076364-9.041455 22.679273 0 31.744 9.041455 9.076364 22.597818 9.076364 31.627637 0C597.562182 402.571636 605.090909 378.379636 605.090909 348.16c0-30.242909-9.041455-54.434909-30.126545-75.601455L439.400727 136.494545C418.304 113.792 392.704 104.727273 364.078545 104.727273zM512-128C229.236364-128 0 101.236364 0 384S229.236364 896 512 896s512-229.236364 512-512-229.236364-512-512-512z m0 46.545455c257.058909 0 465.454545 208.395636 465.454545 465.454545S769.058909 849.454545 512 849.454545 46.545455 641.058909 46.545455 384s208.395636-465.454545 465.454545-465.454545z"  horiz-adv-x="1024" />

    
    <glyph glyph-name="liuyan1" unicode="&#58965;" d="M512.8 882.4C233.6 882.4 8 687.2 8 447.2c0-124.8 60.8-237.6 159.2-316.8L512-126.4V12c278.4 0 504.8 195.2 504.8 435.2S791.2 882.4 512.8 882.4zM764 369.6c-36.8 0-66.4 29.6-66.4 66.4 0 36.8 29.6 66.4 66.4 66.4s66.4-29.6 66.4-66.4c-0.8-36.8-30.4-66.4-66.4-66.4z m-251.2 0c-36.8 0-66.4 29.6-66.4 66.4 0 36.8 29.6 66.4 66.4 66.4s66.4-29.6 66.4-66.4c-0.8-36.8-30.4-66.4-66.4-66.4z m-250.4 0c-36.8 0-66.4 29.6-66.4 66.4 0 36.8 29.6 66.4 66.4 66.4 36.8 0 66.4-29.6 66.4-66.4 0-36.8-29.6-66.4-66.4-66.4z m0 0"  horiz-adv-x="1024" />

    
    <glyph glyph-name="shouye3" unicode="&#58969;" d="M1004.8 441.6L550.4 824s-1.6 0-1.6 1.6l-1.6 1.6-1.6 1.6C524.8 841.6 496 840 476.8 824l-456-382.4c-24-19.2-25.6-54.4-4.8-76.8s57.6-25.6 80-4.8l38.4 33.6V72c0-75.2 64-137.6 142.4-137.6h84.8c32 0 57.6 24 57.6 54.4V248c0 16 12.8 27.2 28.8 27.2h128c16 0 28.8-12.8 28.8-27.2v-252.8c0-3.2 0-8 1.6-11.2l1.6-6.4c4.8-25.6 28.8-43.2 56-43.2h83.2c78.4 0 142.4 62.4 142.4 137.6V392l38.4-33.6c11.2-9.6 24-12.8 36.8-12.8 16 0 32 6.4 43.2 19.2 22.4 20.8 20.8 56-3.2 76.8z"  horiz-adv-x="1024" />

    
    <glyph glyph-name="fenxiang2" unicode="&#58883;" d="M972.80005 346.086v-294.758a128.077 128.077 0 0 0-128-128.128H179.20005a128 128 0 0 0-128 128V716.8c0 70.733 57.19 128 127.872 128h202.317a25.6 25.6 0 0 1 0 51.2H179.07205A179.072 179.072 0 0 1 0.00005 716.8v-665.6A179.2 179.2 0 0 1 179.20005-128h665.6c98.944 0 179.2 80.282 179.2 179.328V346.086a25.6 25.6 0 0 1-51.2 0zM960.00005 768c-353.46 0-640-286.54-640-640a25.6 25.6 0 0 1 51.2 0c0 325.197 263.603 588.8 588.8 588.8a25.6 25.6 0 0 1 0 51.2zM720.10205 833.843l256-102.4a25.6 25.6 0 0 1 18.996 47.514l-256 102.4a25.6 25.6 0 0 1-18.996-47.514zM808.80605 547.533l194.637 189.312a25.6 25.6 0 1 1-35.686 36.71L773.12005 584.243a25.6 25.6 0 1 1 35.686-36.71z"  horiz-adv-x="1024" />

    
    <glyph glyph-name="jiazaizhong1" unicode="&#58903;" d="M481.659259 318.683128h-14.327572c-6.742387 0-12.220576 5.478189-12.220576 12.220576v60.260082c0 6.742387 5.478189 12.220576 12.220576 12.220576h60.260083c6.742387 0 12.220576-5.478189 12.220576-12.220576v-6.320988c46.353909 43.825514 101.978601 77.958848 163.92428 99.028807-22.755556 33.290535-37.504527 74.166255-40.875721 117.991769C438.676543 523.061728 277.702058 311.519342 273.909465 61.62963h122.205761c1.685597 95.657613 33.290535 184.57284 85.544033 257.053498zM515.371193 381.893004c-3.371193 0-5.899588-2.528395-5.899588-5.899588v-13.906173l-7.585185 8.849383c-2.106996 2.528395-6.742387 2.528395-9.270782 0l-7.585185-8.849383v13.906173c0 3.371193-2.528395 5.899588-5.899589 5.899588s-5.899588-2.528395-5.899588-5.899588v-29.919342c0-2.528395 1.685597-4.635391 3.792592-5.478189 2.528395-0.842798 5.05679 0 6.742387 1.685596l13.484774 15.59177 7.585185-8.849383c5.478189 6.320988 10.534979 12.220576 16.434568 18.120165v9.270782c0 2.949794-2.528395 5.478189-5.899589 5.478189zM1182.86749 365.037037c5.478189 0 9.692181-4.213992 9.692181-9.692181v-1.264198c69.109465-78.380247 111.670782-180.358848 113.777778-292.451028h130.633744c-3.792593 252.839506-168.559671 466.910288-396.536625 543.183539-2.949794-45.089712-18.120165-86.80823-41.297119-120.941564 70.373663-24.441152 133.16214-65.316872 183.730041-118.834568zM1192.559671 307.30535c0-5.478189-4.213992-9.692181-9.692181-9.692181h-48.039506c-5.478189 0-9.692181 4.213992-9.692182 9.692181v48.039506c0 5.478189 4.213992 9.692181 9.692182 9.692181h48.039506c-50.146502 53.517695-112.934979 94.393416-183.730041 118.834568-22.755556-32.869136-53.096296-58.574486-88.493828-72.480658 52.253498-19.805761 93.550617-64.052675 115.041976-120.098766 71.216461-52.253498 117.99177-135.269136 120.520164-229.662551h160.131688c-2.106996 112.092181-44.668313 214.492181-113.777778 292.451028v-46.775308z m16.855967-169.823869c0-4.635391-3.792593-8.427984-8.427984-8.427983h-33.711934c-4.635391 0-8.427984 3.792593-8.427983 8.427983s3.792593 8.427984 8.427983 8.427984h33.711934c4.635391 0 8.427984-3.792593 8.427984-8.427984zM1139.463374 307.30535c1.264198 0 2.528395 0.421399 3.371194 1.264197l9.270782 9.270782 10.956378-7.585185c2.106996-1.264198 5.05679-0.842798 6.742387 1.264198l12.220576 16.855967c1.685597 2.106996 0.842798 5.05679-1.264197 6.742386-2.106996 1.685597-5.05679 0.842798-6.742387-1.264197l-9.270782-13.063375-10.534979 7.163786c-2.106996 1.264198-4.635391 0.842798-5.899589-0.421399l-12.220576-12.220576c-1.685597-1.685597-1.685597-5.05679 0-6.742387 0.842798-0.842798 2.106996-1.264198 3.371193-1.264197zM790.544856 411.390947c-34.554733 13.906173-64.895473 39.190123-87.22963 72.059259-61.52428-21.069959-117.57037-55.203292-163.924279-99.028807v-53.939094c0-6.742387-5.478189-12.220576-12.220577-12.220577h-45.93251c-52.253498-72.480658-83.437037-161.395885-85.544033-257.053498h160.131687c2.528395 94.393416 49.303704 177.409053 120.520165 229.662552 21.491358 56.46749 62.367078 100.714403 114.199177 120.520165zM547.81893 129.053498h-42.139918c-4.635391 0-8.427984 3.792593-8.427983 8.427983s3.792593 8.427984 8.427983 8.427984h42.139918c4.635391 0 8.427984-3.792593 8.427984-8.427984s-3.792593-8.427984-8.427984-8.427983zM1146.62716 343.545679m-7.163786 0a7.163786 7.163786 0 1 1 14.327573 0 7.163786 7.163786 0 1 1-14.327573 0ZM510.735802 341.860082c1.264198-1.264198 2.949794-2.106996 4.635391-2.106996 0.842798 0 1.264198 0 2.106996 0.4214 2.528395 0.842798 3.792593 2.949794 3.792593 5.478189v21.069959c-5.478189-5.899588-10.956379-11.799177-16.434568-18.120165l5.899588-6.742387zM766.946502 61.62963h378.83786c-2.528395 94.393416-49.725103 177.409053-120.520164 229.662551 9.270782-24.019753 14.327572-50.567901 15.591769-77.958848h8.427984c23.176955 0 42.139918-18.962963 42.139917-42.139917s-18.962963-42.139918-42.139917-42.139918h-396.115227c-23.176955 0-42.139918 18.962963-42.139917 42.139918s18.962963 42.139918 42.139917 42.139917h8.427984c0.842798 27.390947 6.320988 53.517695 15.17037 77.958848-71.216461-52.253498-117.57037-135.269136-120.520164-229.662551h67.423868c4.635391 0 8.427984-3.792593 8.427983-8.427984h29.497943c0 4.635391 3.792593 8.427984 8.427983 8.427984h54.781893c4.635391 0 8.427984-3.792593 8.427984-8.427984h25.283951c0 4.635391 3.792593 8.427984 8.427983 8.427984zM223.341564 61.62963H172.773663c-4.635391 0-8.427984-3.792593-8.427984-8.427984s3.792593-8.427984 8.427984-8.427983h50.567901c4.635391 0 8.427984 3.792593 8.427983 8.427983s-3.792593 8.427984-8.427983 8.427984zM724.806584 61.62963h-54.781893c-4.635391 0-8.427984-3.792593-8.427983-8.427984s3.792593-8.427984 8.427983-8.427983h54.781893c4.635391 0 8.427984 3.792593 8.427984 8.427983s-3.792593 8.427984-8.427984 8.427984zM1525.465021 61.62963h-58.995885c-4.635391 0-8.427984-3.792593-8.427984-8.427984s3.792593-8.427984 8.427984-8.427983h58.995885c4.635391 0 8.427984 3.792593 8.427983 8.427983s-3.792593 8.427984-8.427983 8.427984zM623.670782 61.62963H269.695473c-4.635391 0-8.427984-3.792593-8.427983-8.427984s3.792593-8.427984 8.427983-8.427983h353.975309c4.635391 0 8.427984 3.792593 8.427983 8.427983s-3.792593 8.427984-8.427983 8.427984zM1436.971193 61.62963H766.946502c-4.635391 0-8.427984-3.792593-8.427983-8.427984s3.792593-8.427984 8.427983-8.427983h670.024691c4.635391 0 8.427984 3.792593 8.427984 8.427983s-3.792593 8.427984-8.427984 8.427984zM1158.847737 137.481481c0-4.635391 3.792593-8.427984 8.427983-8.427983h33.711934c4.635391 0 8.427984 3.792593 8.427984 8.427983s-3.792593 8.427984-8.427984 8.427984h-33.711934c-4.635391 0-8.427984-3.792593-8.427983-8.427984zM547.81893 145.909465h-42.139918c-4.635391 0-8.427984-3.792593-8.427983-8.427984s3.792593-8.427984 8.427983-8.427983h42.139918c4.635391 0 8.427984 3.792593 8.427984 8.427983s-3.792593 8.427984-8.427984 8.427984zM602.600823-31.078189h-46.353909c-4.635391 0-8.427984-3.792593-8.427984-8.427984s3.792593-8.427984 8.427984-8.427983h46.353909c4.635391 0 8.427984 3.792593 8.427984 8.427983s-3.792593 8.427984-8.427984 8.427984zM956.576132-31.078189h-320.263375c-4.635391 0-8.427984-3.792593-8.427983-8.427984s3.792593-8.427984 8.427983-8.427983h320.263375c4.635391 0 8.427984 3.792593 8.427983 8.427983s-3.792593 8.427984-8.427983 8.427984zM1200.987654-31.078189h-54.781893c-4.635391 0-8.427984-3.792593-8.427983-8.427984s3.792593-8.427984 8.427983-8.427983h54.781893c4.635391 0 8.427984 3.792593 8.427984 8.427983s-3.792593 8.427984-8.427984 8.427984zM1112.493827-31.078189h-117.991769c-4.635391 0-8.427984-3.792593-8.427984-8.427984s3.792593-8.427984 8.427984-8.427983h117.991769c4.635391 0 8.427984 3.792593 8.427984 8.427983s-3.792593 8.427984-8.427984 8.427984zM522.534979-31.078189h-21.069958c-4.635391 0-8.427984-3.792593-8.427984-8.427984s3.792593-8.427984 8.427984-8.427983h21.069958c4.635391 0 8.427984 3.792593 8.427984 8.427983s-3.792593 8.427984-8.427984 8.427984zM1349.741564 402.962963h48.039506c5.478189 0 9.692181 4.213992 9.692181 9.692181v48.039506c0 5.478189-4.213992 9.692181-9.692181 9.692181h-48.039506c-5.478189 0-9.692181-4.213992-9.692181-9.692181v-48.039506c0-5.478189 4.213992-9.692181 9.692181-9.692181z m4.635391 48.039506c0 2.528395 2.106996 4.635391 4.635391 4.635391h29.076543c2.528395 0 4.635391-2.106996 4.635391-4.635391v-19.384362c0-2.528395-2.106996-4.635391-4.635391-4.635391h-24.019753v-9.692181c0-2.528395-2.106996-4.635391-4.635391-4.635391-2.528395 0-4.635391 2.106996-4.635391 4.635391v33.711934zM1364.069136 446.367078h19.384362v-9.692181h-19.384362zM405.807407 529.382716h48.039507c5.478189 0 9.692181 4.213992 9.692181 9.692181V587.114403c0 5.478189-4.213992 9.692181-9.692181 9.692181H405.807407C400.329218 596.806584 396.115226 592.592593 396.115226 587.114403v-48.039506c0-5.478189 4.213992-9.692181 9.692181-9.692181z m9.692181 50.567901c0 1.685597 0.842798 3.371193 2.528396 4.213992 1.685597 0.842798 3.371193 0.842798 5.05679-0.421399l24.019753-16.855967c1.264198-0.842798 2.106996-2.528395 2.106996-3.792593 0-1.685597-0.842798-2.949794-2.106996-3.792592l-24.019753-16.855967c-0.842798-0.421399-1.685597-0.842798-2.949795-0.842799-0.842798 0-1.685597 0-2.106995 0.421399-1.685597 0.842798-2.528395 2.528395-2.528396 4.213992v33.711934zM1241.441975 576.158025m-5.899588 0a5.899588 5.899588 0 1 1 11.799177 0 5.899588 5.899588 0 1 1-11.799177 0ZM1217.422222 546.238683h60.260083c6.742387 0 12.220576 5.478189 12.220576 12.220576V618.297942c0 6.742387-5.478189 12.220576-12.220576 12.220577h-60.260083c-6.742387 0-12.220576-5.478189-12.220576-12.220577v-60.260082c0-6.320988 5.478189-11.799177 12.220576-11.799177z m24.019753 48.039506c2.106996 0 4.213992-0.421399 5.899589-1.264197v18.962963c0 3.371193 2.528395 5.899588 5.899588 5.899588 9.692181 0 18.541564-5.478189 22.755556-13.906173 1.685597-2.949794 0.421399-6.742387-2.528395-8.006584-2.949794-1.685597-6.742387-0.421399-8.006585 2.528395-1.264198 2.528395-3.371193 4.635391-5.899588 5.899589V575.736626c0-10.11358-8.006584-18.120165-18.120165-18.120165s-18.120165 8.006584-18.120164 18.120165 8.006584 18.541564 18.120164 18.541563zM539.390947 330.903704v60.260082c0 6.742387-5.478189 12.220576-12.220577 12.220576h-60.260082c-6.742387 0-12.220576-5.478189-12.220576-12.220576v-60.260082c0-6.742387 5.478189-12.220576 12.220576-12.220576h60.260082c6.742387 0 12.220576 5.478189 12.220577 12.220576z m-18.120165 35.81893v-21.069959c0-2.528395-1.685597-4.635391-3.792593-5.478189-0.842798-0.421399-1.264198-0.421399-2.106996-0.4214-1.685597 0-3.371193 0.842798-4.635391 2.106996l-5.899588 6.742387-7.585185 8.849383-13.484774-15.59177c-1.685597-2.106996-4.213992-2.528395-6.742387-1.685596-2.528395 0.842798-3.792593 2.949794-3.792592 5.478189v29.919341c0 3.371193 2.528395 5.899588 5.899588 5.899589s5.899588-2.528395 5.899589-5.899589v-13.906172l7.585185 8.849382c2.106996 2.528395 6.742387 2.528395 9.270782 0l7.585185-8.849382v13.906172c0 3.371193 2.528395 5.899588 5.899588 5.899589s5.899588-2.528395 5.899589-5.899589v-8.849382zM1125.135802 355.344856v-48.039506c0-5.478189 4.213992-9.692181 9.692182-9.692181h48.039506c5.478189 0 9.692181 4.213992 9.692181 9.692181v48.039506c0 5.478189-4.213992 9.692181-9.692181 9.692181h-48.460906c-5.05679 0-9.270782-4.213992-9.270782-9.692181z m21.491358-4.635391c3.792593 0 7.163786-3.371193 7.163787-7.163786s-3.371193-7.163786-7.163787-7.163786-7.163786 3.371193-7.163786 7.163786 3.371193 7.163786 7.163786 7.163786z m-10.534979-35.397531l12.220576 12.220576c1.685597 1.685597 4.213992 1.685597 5.899589 0.421399l10.534979-7.163786 9.270782 13.063375c1.685597 2.106996 4.635391 2.528395 6.742387 1.264197 2.106996-1.685597 2.528395-4.635391 1.264197-6.742386l-12.220576-16.855967c-1.685597-2.106996-4.635391-2.528395-6.742387-1.264198l-10.956378 7.585185-9.270782-9.270782c-0.842798-0.842798-2.106996-1.264198-3.371194-1.264197s-2.528395 0.421399-3.371193 1.264197c-1.685597 2.106996-1.685597 5.05679 0 6.742387zM772.003292 472.493827c-1.264198 1.264198-2.528395 2.949794-3.371193 4.213992C737.44856 515.476543 721.435391 564.358848 720.592593 613.662551h-42.139918c2.106996-57.310288 24.441152-109.563786 58.574485-145.804115 7.163786 1.264198 19.805761 3.371193 34.976132 4.635391zM807.822222 386.528395c5.05679 3.371193 10.534979 6.320988 16.434568 8.849383 5.478189 2.528395 14.327572 7.163786 16.434568 13.063374-7.163786 1.685597-10.11358 4.635391-10.11358 4.635391h-1.264198c0-0.421399 0.421399-1.264198 0.421399-1.685596 0-4.213992-2.949794-7.585185-6.742386-8.427984-80.908642-15.59177-140.747325-94.814815-144.118519-189.62963h40.87572c0.842798 18.120165 14.748971 72.902058 16.434568 78.801646 16.013169 51.4107 53.096296 81.75144 71.63786 94.393416zM1049.283951 630.518519c13.906173 0 25.283951 11.377778 25.28395 25.28395s-11.377778 25.283951-25.28395 25.283951h-396.115227c-13.906173 0-25.283951-11.377778-25.28395-25.283951s11.377778-25.283951 25.28395-25.28395h396.115227zM653.168724 196.477366c-13.906173 0-25.283951-11.377778-25.28395-25.28395s11.377778-25.283951 25.28395-25.283951h396.115227c13.906173 0 25.283951 11.377778 25.28395 25.283951s-11.377778 25.283951-25.28395 25.28395h-396.115227zM772.003292 472.493827c29.497942 2.949794 68.688066 4.213992 97.764609-5.899588 37.925926-13.063374 83.015638-0.842798 96.921811 3.792592 33.711934 36.240329 55.203292 87.22963 57.310288 143.27572h-303.407407c0.842798-49.303704 16.855967-98.186008 47.618107-136.954732 1.264198-1.264198 2.528395-2.528395 3.792592-4.213992zM840.269959 408.441152c-2.106996-5.899588-10.534979-10.534979-16.434568-13.063374-5.478189-2.528395-10.956379-5.478189-16.434568-8.849383-18.541564-12.641975-55.624691-42.982716-72.059259-94.393416-1.685597-5.899588-15.59177-61.102881-16.434568-78.801646H1024c-3.371193 93.550617-64.895473 174.459259-145.382716 189.62963-3.792593 0.842798-6.742387 4.213992-6.742387 8.427984v0.421399c-2.949794-1.685597-9.270782-5.05679-18.962963-5.05679-5.478189 0.421399-9.270782 0.842798-12.641975 1.685596zM830.156379 318.683128c0 7.163786 5.478189 12.641975 12.641975 12.641975s12.641975-5.478189 12.641975-12.641975-5.478189-12.641975-12.641975-12.641976-12.641975 5.478189-12.641975 12.641976z m16.855967-80.065844c-4.635391 0-8.427984 3.792593-8.427984 8.427983s3.792593 8.427984 8.427984 8.427984 8.427984-3.792593 8.427983-8.427984-3.792593-8.427984-8.427983-8.427983z m25.28395 37.925926c0-4.635391-3.792593-8.427984-8.427983-8.427984s-8.427984 3.792593-8.427984 8.427984 3.792593 8.427984 8.427984 8.427983 8.427984-3.792593 8.427983-8.427983z m-4.213991 92.707819c0-9.270782-7.585185-16.855967-16.855968-16.855967s-16.855967 7.585185-16.855967 16.855967 7.585185 16.855967 16.855967 16.855967 16.855967-7.585185 16.855968-16.855967zM790.544856 411.390947c-51.832099-19.805761-92.707819-64.052675-113.777778-120.520165-8.849383-24.019753-14.327572-50.146502-15.17037-77.958848h-8.427984c-23.176955 0-42.139918-18.962963-42.139917-42.139918s18.962963-42.139918 42.139917-42.139917h396.115227c23.176955 0 42.139918 18.962963 42.139917 42.139917s-18.962963 42.139918-42.139917 42.139918h-8.427984c-0.842798 27.390947-6.320988 53.939095-15.591769 77.958848-21.069959 56.046091-62.367078 100.293004-115.041976 120.098765 34.976132 13.906173 65.738272 39.190123 88.493827 72.480659 23.176955 34.133333 38.347325 75.851852 41.29712 120.941564 0 2.949794 0.421399 5.899588 0.421399 8.849382h8.427983c23.176955 0 42.139918 18.962963 42.139918 42.139918s-18.962963 42.139918-42.139918 42.139918h-396.115226c-23.176955 0-42.139918-18.962963-42.139918-42.139918s18.962963-42.139918 42.139918-42.139918h8.427984c0-3.792593 0.421399-8.006584 0.842798-11.799177 3.371193-43.825514 18.120165-84.701235 40.87572-117.991769 22.755556-32.869136 53.096296-58.153086 87.651029-72.059259z m241.883128-214.913581h16.855967c13.906173 0 25.283951-11.377778 25.28395-25.28395s-11.377778-25.283951-25.28395-25.283951h-396.115227c-13.906173 0-25.283951 11.377778-25.28395 25.283951s11.377778 25.283951 25.28395 25.28395h379.25926zM653.168724 630.518519c-13.906173 0-25.283951 11.377778-25.28395 25.28395s11.377778 25.283951 25.28395 25.283951h396.115227c13.906173 0 25.283951-11.377778 25.28395-25.283951s-11.377778-25.283951-25.28395-25.28395h-396.115227z m67.423869-16.855968h303.407407c-2.106996-55.624691-23.598354-107.035391-57.310288-143.27572 2.949794 0.842798 4.213992 1.264198 4.213992 1.264198s-53.096296-54.360494-97.764609-58.995885c0 0-0.421399-0.421399-1.685597-1.264197v-0.4214c0-4.213992 2.949794-7.585185 6.742387-8.427983 80.487243-15.59177 142.011523-96.079012 145.382716-189.62963H678.452675c3.371193 95.236214 62.788477 174.459259 144.118518 189.62963 3.792593 0.842798 6.742387 4.213992 6.742387 8.427983 0 0.421399 0 1.264198-0.421399 1.685597-36.240329 5.899588-75.009053 18.541564-97.34321 53.517696 0 0 2.106996 0.421399 5.478189 0.842798-34.554733 36.240329-56.888889 88.493827-58.574485 145.804115h42.139918zM840.269959 408.441152c0.421399 0.842798 0.421399 1.685597 0.421399 2.528395 0 11.799177-21.912757 21.912757-21.912757 21.912758-18.120165 9.692181-33.711934 24.441152-47.196708 40.032921-15.17037-1.685597-27.812346-3.371193-34.554733-4.635391 23.598354-24.862551 52.674897-42.139918 85.122634-48.039506 3.371193-0.842798 5.899588-3.371193 6.742387-6.320987h1.264198c0.421399-0.842798 3.371193-3.792593 10.11358-5.47819zM869.767901 467.015638c-29.076543 9.692181-68.266667 8.849383-97.764609 5.899588 13.063374-15.59177 29.076543-30.340741 47.196708-40.032921 0 0 21.912757-9.692181 21.912757-21.912758 0-0.842798 0-1.685597-0.421399-2.528395 3.371193-0.842798 7.163786-1.264198 12.220576-1.264197 9.692181 0 16.434568 3.371193 18.962963 5.05679 0.421399 3.792593 2.949794 7.163786 6.742387 7.585185 33.711934 6.320988 64.052675 24.862551 88.493827 50.9893-14.327572-4.635391-59.417284-16.855967-97.34321-3.792592zM822.571193 419.81893c-32.447737 6.320988-61.52428 23.598354-85.122633 48.039506-3.371193-0.842798-5.478189-0.842798-5.47819-0.842798 22.755556-34.976132 61.102881-48.039506 97.34321-53.517696-0.842798 2.949794-3.371193 5.478189-6.742387 6.320988zM822.571193 419.81893c-32.447737 6.320988-61.52428 23.598354-85.122633 48.039506-3.371193-0.842798-5.478189-0.842798-5.47819-0.842798 22.755556-34.976132 61.102881-48.039506 97.34321-53.517696-0.842798 2.949794-3.371193 5.478189-6.742387 6.320988zM878.195885 419.81893c-3.792593-0.842798-6.742387-3.792593-6.742387-7.585185 1.264198 0.842798 1.685597 1.264198 1.685597 1.264197 44.668313 4.635391 97.764609 58.995885 97.764609 58.995885s-1.685597-0.421399-4.213992-1.264197c-24.019753-26.969547-54.360494-45.089712-88.493827-51.4107zM878.195885 419.81893c-3.792593-0.842798-6.742387-3.792593-6.742387-7.585185 1.264198 0.842798 1.685597 1.264198 1.685597 1.264197 44.668313 4.635391 97.764609 58.995885 97.764609 58.995885s-1.685597-0.421399-4.213992-1.264197c-24.019753-26.969547-54.360494-45.089712-88.493827-51.4107zM851.226337 369.251029m-16.855967 0a16.855967 16.855967 0 1 1 33.711935 0 16.855967 16.855967 0 1 1-33.711935 0ZM851.226337 369.251029m-16.855967 0a16.855967 16.855967 0 1 1 33.711935 0 16.855967 16.855967 0 1 1-33.711935 0ZM842.798354 318.683128m-12.641975 0a12.641975 12.641975 0 1 1 25.28395 0 12.641975 12.641975 0 1 1-25.28395 0ZM842.798354 318.683128m-12.641975 0a12.641975 12.641975 0 1 1 25.28395 0 12.641975 12.641975 0 1 1-25.28395 0ZM863.868313 276.54321m-8.427984 0a8.427984 8.427984 0 1 1 16.855967 0 8.427984 8.427984 0 1 1-16.855967 0ZM863.868313 276.54321m-8.427984 0a8.427984 8.427984 0 1 1 16.855967 0 8.427984 8.427984 0 1 1-16.855967 0ZM847.012346 247.045267m-8.427984 0a8.427984 8.427984 0 1 1 16.855967 0 8.427984 8.427984 0 1 1-16.855967 0ZM847.012346 247.045267m-8.427984 0a8.427984 8.427984 0 1 1 16.855967 0 8.427984 8.427984 0 1 1-16.855967 0ZM311.835391 407.176955h42.139918c4.635391 0 8.427984 3.792593 8.427983 8.427983v42.139918c0 4.635391-3.792593 8.427984-8.427983 8.427984H311.835391c-4.635391 0-8.427984-3.792593-8.427984-8.427984v-42.139918c0-4.635391 3.792593-8.427984 8.427984-8.427983z m8.427983 42.139917c0 2.528395 1.685597 4.213992 4.213992 4.213992h16.855967c2.528395 0 4.213992-1.685597 4.213992-4.213992s-1.685597-4.213992-4.213992-4.213991h-12.641975v-8.427984h12.641975c2.528395 0 4.213992-1.685597 4.213992-4.213992s-1.685597-4.213992-4.213992-4.213991h-12.641975v-8.427984c0-2.528395-1.685597-4.213992-4.213992-4.213992s-4.213992 1.685597-4.213992 4.213992v29.497942z"  horiz-adv-x="1736" />

    
    <glyph glyph-name="jiantou-" unicode="&#58889;" d="M483.84 440.832L32.768-10.752l28.16-28.16L512 412.672l452.096-451.584 28.16 28.16-452.096 451.584-28.16 28.16-28.16-28.16z m479.744-141.312l28.16 28.16-452.096 451.584-28.16 28.16-479.744-480.256 28.16-28.16 451.584 452.096 452.096-451.584z"  horiz-adv-x="1024" />

    
    <glyph glyph-name="weixintupian_" unicode="&#59218;" d="M504.492097 896h14.918301c74.201485-1.072558 148.20796-18.330985 214.999048-50.800229 64.255951-31.006665 121.784041-75.664064 167.904018-130.071986 37.247001-43.682346 66.986098-93.800038 87.559703-147.427918 21.646163-56.065511 32.95677-116.031232 33.931823-176.094459v-14.138259c-0.975052-72.933917-17.453437-145.770329-48.752619-211.781375-29.641592-62.793373-72.251381-119.443915-124.416683-165.466387-54.212912-47.972577-118.761379-84.34203-187.892591-105.598172-46.119977-14.235765-94.190059-21.646163-142.455152-22.621215h-15.795848c-47.777566 0.780042-95.457627 7.995429-141.090078 21.938678-51.482765 15.600838-100.430394 39.392116-144.405256 70.203771C166.63645 0.901923 121.19901 47.314416 85.804609 100.357265 47.680061 157.397829 21.256142 222.141306 8.775471 289.61493c-5.460293 28.959055-8.19044 58.503142-8.677966 87.949724v14.040754c0.780042 48.070082 8.092935 95.945153 22.133689 141.87012C43.389831 603.484289 80.0518 668.715292 128.706913 723.513236 180.384689 781.918873 245.615692 828.331365 317.769568 857.875452 376.857741 882.251762 440.626166 895.024948 504.492097 896zM363.694534 823.066083c-72.543896-24.376309-138.749952-67.376119-190.817749-123.344125-48.752619-52.457818-85.317082-116.226243-105.403161-184.967435-26.326414-89.607313-24.863835-187.210055 4.485241-275.939821 23.206246-70.496286 63.768425-135.044753 116.908779-186.722529 1.755094 20.963626 3.705199 42.024757 7.897924 62.695867 1.560084 6.922872 3.120168 13.943249 6.532851 20.183584 4.972767 7.897924 13.358217 12.675681 21.646163 16.283375 13.163207 5.557799 27.203961 8.482956 41.14721 11.115597 27.301466 5.070272 55.090459 7.897924 82.196915 14.33327 12.773186 3.217673 25.741383 7.020377 36.85698 14.430775 5.557799 3.705199 10.335555 8.677966 13.065701 14.820796 7.702914 16.283375 15.698343 32.566749 21.743668 49.630166 2.145115 6.825367 4.582746 13.845744 3.705199 21.061131-0.585031 4.875262-4.29023 8.580461-8.287945 11.018092-6.532851 4.09522-13.553228 7.507903-19.598553 12.28566-7.897924 6.045325-13.065702 14.723291-16.965911 23.693772-7.215388 16.965911-10.23805 35.296896-15.795848 52.847839-2.145115 6.532851-4.582746 13.163207-8.775472 18.721005-7.800419 9.653018-11.700628 21.841173-14.820796 33.639307-4.29023 17.550943-6.630356 35.589412-5.557798 53.62788 0.682537 9.360503 3.022662 19.111026 9.067987 26.521425 3.120168 3.997715 8.38545 5.167778 11.895639 8.580461 3.705199 4.29023 3.510189 10.335555 4.09522 15.600838 2.145115 31.201676 4.387736 63.085888 15.405827 92.629975 7.020377 18.916016 18.721006 36.954485 36.271948 47.582556 17.453437 10.823081 38.709579 12.968197 58.698153 10.823081 9.360503 5.070272 18.916016 10.043039 29.056561 13.260712 16.478385 5.557799 34.711864 6.922872 51.58027 2.145115 17.843458-4.875262 33.541802-15.600838 47.192535-27.886497 13.455723-11.895639 25.058846-25.643877 38.319558-37.637022 5.947819-5.557799 10.043039-12.870691 12.383165-20.67111 3.120168-10.530566 3.510189-21.646163 3.607694-32.664255 0-17.940964-0.780042-35.881927 0.975052-53.725385 0.487526-4.29023 1.8526-9.165492 5.850315-11.505618 3.607694-2.145115 7.605408-3.900209 10.23805-7.410398 5.655304-7.702914 7.897924-17.355932 8.482955-26.81394 0.877547-17.355932-1.365073-34.906875-5.362788-51.775281-3.120168-12.383165-7.117882-24.961341-15.405827-35.00438-4.09522-5.557799-6.435346-12.188155-8.580461-18.623501-4.29023-13.845744-7.117882-28.179014-11.700629-41.927252-3.705199-10.920587-8.38545-21.938678-16.57589-30.324128-6.532851-6.532851-14.820796-10.725576-22.71872-15.405828-3.997715-2.340126-7.995429-5.460293-9.262998-10.140544-1.657589-6.435346 0.292516-13.065702 2.145115-19.208532 4.875262-15.210817 11.798134-29.641592 18.525996-44.169873 3.315178-6.532851 5.752809-13.748238 11.213102-18.81851 9.750524-9.262998 22.913731-13.845744 35.686917-17.453438 35.881927-9.653018 73.226433-11.603123 109.205865-20.4761 11.603123-3.022662 23.206246-6.532851 33.249286-13.260712 9.555513-6.33784 14.820796-17.160922 18.916016-27.496477 8.38545-23.206246 9.653018-48.167587 10.823081-72.543896 61.428299 56.943058 106.963245 130.949533 129.876976 211.488859 28.276519 98.382784 22.71872 206.223576-15.795848 301.096172-24.083794 59.5757-60.843268 114.081127-106.963245 158.836032C782.284517 767.195582 718.028566 805.417635 648.409827 826.771282c-92.239954 28.471529-193.25538 27.203961-284.715293-3.705199z"  horiz-adv-x="1024" />

    
    <glyph glyph-name="sangang-" unicode="&#58945;" d="M97.5 772.95m77.86 0l674.77 0q77.86 0 77.86-77.86l0 0q0-77.86-77.86-77.86l-674.77 0q-77.86 0-77.86 77.86l0 0q0 77.86 77.86 77.86ZM97.5 150.08m77.86 0l674.77 0q77.86 0 77.86-77.86l0 0q0-77.86-77.86-77.86l-674.77 0q-77.86 0-77.86 77.86l0 0q0 77.86 77.86 77.86ZM97.5 461.51m77.86 0l467.15 0q77.86 0 77.86-77.86l0 0q0-77.86-77.86-77.86l-467.15 0q-77.86 0-77.86 77.86l0 0q0 77.86 77.86 77.86Z"  horiz-adv-x="1024" />

    
    <glyph glyph-name="guidang2" unicode="&#58983;" d="M224 573.4h576c16.6 0 30 13.4 30 30s-13.4 30-30 30H224c-16.6 0-30-13.4-30-30 0-16.5 13.5-30 30-30zM290.1 717.6h443.8c16.6 0 30 13.4 30 30s-13.4 30-30 30H290.1c-16.6 0-30-13.4-30-30s13.4-30 30-30zM629.6 282.1H394.4c-16.6 0-30-13.4-30-30s13.4-30 30-30h235.2c16.6 0 30 13.4 30 30s-13.4 30-30 30zM850.3 492.1H173.7c-33 0-60-27-60-60v-360c0-33 27-60 60-60h676.6c33 0 60 27 60 60v360c0 33-27 60-60 60z m-0.1-419.8l-0.1-0.1H173.9l-0.1 0.1V432l0.1 0.1h676.2l0.1-0.1v-359.7z"  horiz-adv-x="1024" />

    
    </font>
</defs>
</svg>
